<svg width="120" height="138" viewBox="0 0 120 138" fill="none" xmlns="http://www.w3.org/2000/svg">
<mask id="mask0_91_23049" style="mask-type:alpha" maskUnits="userSpaceOnUse" x="-17" y="0" width="137" height="138">
<circle cx="51.3145" cy="69.2149" r="68.3145" fill="#8DD3BB"/>
</mask>
<g mask="url(#mask0_91_23049)">
<path  d="M24.4844 4.25929C24.4844 5.69747 25.6503 6.86335 27.0884 6.86335C28.5266 6.86335 29.6925 5.69747 29.6925 4.25929V4.06402C29.6925 2.62584 28.5266 1.45996 27.0884 1.45996C25.6503 1.45996 24.4844 2.62584 24.4844 4.06402V4.25929Z" fill="#8DD3BB"/>
<path  d="M24.4844 10.7349C24.4844 12.1731 25.6503 13.3389 27.0884 13.3389C28.5266 13.3389 29.6925 12.1731 29.6925 10.7349V10.5396C29.6925 9.10142 28.5266 7.93555 27.0884 7.93555C25.6503 7.93555 24.4844 9.10142 24.4844 10.5396V10.7349Z" fill="#8DD3BB"/>
<path  d="M18.4434 17.3901C18.4434 18.8283 19.6092 19.9942 21.0474 19.9942C22.4856 19.9942 23.6515 18.8283 23.6515 17.3901V17.1949C23.6515 15.7567 22.4856 14.5908 21.0474 14.5908C19.6092 14.5908 18.4434 15.7567 18.4434 17.1949V17.3901Z" fill="#8DD3BB"/>
<path  d="M30.6934 17.3906C30.6934 18.8288 31.8592 19.9947 33.2974 19.9947C34.7356 19.9947 35.9015 18.8288 35.9015 17.3906V17.1954C35.9015 15.7572 34.7356 14.5913 33.2974 14.5913C31.8592 14.5913 30.6934 15.7572 30.6934 17.1954V17.3906Z" fill="#8DD3BB"/>
<path  d="M6.00586 23.8892C6.00586 25.3274 7.17174 26.4932 8.60992 26.4932C10.0481 26.4932 11.214 25.3274 11.214 23.8892V23.6939C11.214 22.2557 10.0481 21.0898 8.60992 21.0898C7.17174 21.0898 6.00586 22.2557 6.00586 23.6939V23.8892Z" fill="#8DD3BB"/>
<path  d="M12.2129 23.8892C12.2129 25.3274 13.3788 26.4932 14.8169 26.4932C16.2551 26.4932 17.421 25.3274 17.421 23.8892V23.6939C17.421 22.2557 16.2551 21.0898 14.8169 21.0898C13.3788 21.0898 12.2129 22.2557 12.2129 23.6939V23.8892Z" fill="#8DD3BB"/>
<path  d="M30.6934 23.8892C30.6934 25.3274 31.8592 26.4932 33.2974 26.4932C34.7356 26.4932 35.9015 25.3274 35.9015 23.8892V23.6939C35.9015 22.2557 34.7356 21.0898 33.2974 21.0898C31.8592 21.0898 30.6934 22.2557 30.6934 23.6939V23.8892Z" fill="#8DD3BB"/>
<path  d="M36.9219 23.8892C36.9219 25.3274 38.0878 26.4932 39.5259 26.4932C40.9641 26.4932 42.13 25.3274 42.13 23.8892V23.6939C42.13 22.2557 40.9641 21.0898 39.5259 21.0898C38.0878 21.0898 36.9219 22.2557 36.9219 23.6939V23.8892Z" fill="#8DD3BB"/>
<path  d="M43.1289 23.8892C43.1289 25.3274 44.2948 26.4932 45.733 26.4932C47.1711 26.4932 48.337 25.3274 48.337 23.8892V23.6939C48.337 22.2557 47.1711 21.0898 45.733 21.0898C44.2948 21.0898 43.1289 22.2557 43.1289 23.6939V23.8892Z" fill="#8DD3BB"/>
<path  d="M49.1914 23.8892C49.1914 25.3274 50.3573 26.4932 51.7955 26.4932C53.2336 26.4932 54.3995 25.3274 54.3995 23.8892V23.6939C54.3995 22.2557 53.2336 21.0898 51.7955 21.0898C50.3573 21.0898 49.1914 22.2557 49.1914 23.6939V23.8892Z" fill="#8DD3BB"/>
<path  d="M6.00586 30.5444C6.00586 31.9826 7.17174 33.1485 8.60992 33.1485C10.0481 33.1485 11.214 31.9826 11.214 30.5444V30.3492C11.214 28.911 10.0481 27.7451 8.60992 27.7451C7.17174 27.7451 6.00586 28.911 6.00586 30.3492V30.5444Z" fill="#8DD3BB"/>
<path  d="M12.2129 30.5445C12.2129 31.9826 13.3788 33.1485 14.8169 33.1485C16.2551 33.1485 17.421 31.9826 17.421 30.5445V30.3492C17.421 28.911 16.2551 27.7451 14.8169 27.7451C13.3788 27.7451 12.2129 28.911 12.2129 30.3492V30.5445Z" fill="#8DD3BB"/>
<path  d="M18.4434 30.5444C18.4434 31.9826 19.6092 33.1485 21.0474 33.1485C22.4856 33.1485 23.6515 31.9826 23.6515 30.5444V30.3492C23.6515 28.911 22.4856 27.7451 21.0474 27.7451C19.6092 27.7451 18.4434 28.911 18.4434 30.3492V30.5444Z" fill="#8DD3BB"/>
<path  d="M18.4434 37.0205C18.4434 38.4587 19.6092 39.6246 21.0474 39.6246C22.4856 39.6246 23.6515 38.4587 23.6515 37.0205V36.8252C23.6515 35.3871 22.4856 34.2212 21.0474 34.2212C19.6092 34.2212 18.4434 35.3871 18.4434 36.8252V37.0205Z" fill="#8DD3BB"/>
<path  d="M24.4844 43.5186C24.4844 44.9567 25.6503 46.1226 27.0884 46.1226C28.5266 46.1226 29.6925 44.9567 29.6925 43.5186V43.3233C29.6925 41.8851 28.5266 40.7192 27.0884 40.7192C25.6503 40.7192 24.4844 41.8851 24.4844 43.3233V43.5186Z" fill="#8DD3BB"/>
<path  d="M30.6934 43.5186C30.6934 44.9567 31.8592 46.1226 33.2974 46.1226C34.7356 46.1226 35.9015 44.9567 35.9015 43.5186V43.3233C35.9015 41.8851 34.7356 40.7192 33.2974 40.7192C31.8592 40.7192 30.6934 41.8851 30.6934 43.3233V43.5186Z" fill="#8DD3BB"/>
<path  d="M36.9219 43.5186C36.9219 44.9567 38.0878 46.1226 39.5259 46.1226C40.9641 46.1226 42.13 44.9567 42.13 43.5186V43.3233C42.13 41.8851 40.9641 40.7192 39.5259 40.7192C38.0878 40.7192 36.9219 41.8851 36.9219 43.3233V43.5186Z" fill="#8DD3BB"/>
<path  d="M43.1289 43.5186C43.1289 44.9567 44.2948 46.1226 45.733 46.1226C47.1711 46.1226 48.337 44.9567 48.337 43.5186V43.3233C48.337 41.8851 47.1711 40.7192 45.733 40.7192C44.2948 40.7192 43.1289 41.8851 43.1289 43.3233V43.5186Z" fill="#8DD3BB"/>
<path  d="M49.1914 43.5186C49.1914 44.9567 50.3573 46.1226 51.7955 46.1226C53.2336 46.1226 54.3995 44.9567 54.3995 43.5186V43.3233C54.3995 41.8851 53.2336 40.7192 51.7955 40.7192C50.3573 40.7192 49.1914 41.8851 49.1914 43.3233V43.5186Z" fill="#8DD3BB"/>
<path  d="M55.3984 43.5186C55.3984 44.9567 56.5643 46.1226 58.0025 46.1226C59.4407 46.1226 60.6066 44.9567 60.6066 43.5186V43.3233C60.6066 41.8851 59.4407 40.7192 58.0025 40.7192C56.5643 40.7192 55.3984 41.8851 55.3984 43.3233V43.5186Z" fill="#8DD3BB"/>
<path  d="M61.6074 43.5186C61.6074 44.9567 62.7733 46.1226 64.2115 46.1226C65.6497 46.1226 66.8155 44.9567 66.8155 43.5186V43.3233C66.8155 41.8851 65.6497 40.7192 64.2115 40.7192C62.7733 40.7192 61.6074 41.8851 61.6074 43.3233V43.5186Z" fill="#8DD3BB"/>
<path  d="M30.6934 50.1748C30.6934 51.613 31.8592 52.7789 33.2974 52.7789C34.7356 52.7789 35.9015 51.613 35.9015 50.1748V49.9795C35.9015 48.5414 34.7356 47.3755 33.2974 47.3755C31.8592 47.3755 30.6934 48.5414 30.6934 49.9795V50.1748Z" fill="#8DD3BB"/>
<path  d="M36.9219 50.1748C36.9219 51.613 38.0878 52.7789 39.5259 52.7789C40.9641 52.7789 42.13 51.613 42.13 50.1748V49.9795C42.13 48.5414 40.9641 47.3755 39.5259 47.3755C38.0878 47.3755 36.9219 48.5414 36.9219 49.9795V50.1748Z" fill="#8DD3BB"/>
<path  d="M43.1289 50.1748C43.1289 51.613 44.2948 52.7789 45.733 52.7789C47.1711 52.7789 48.337 51.613 48.337 50.1748V49.9795C48.337 48.5414 47.1711 47.3755 45.733 47.3755C44.2948 47.3755 43.1289 48.5414 43.1289 49.9795V50.1748Z" fill="#8DD3BB"/>
<path  d="M49.1914 50.1748C49.1914 51.613 50.3573 52.7789 51.7955 52.7789C53.2336 52.7789 54.3995 51.613 54.3995 50.1748V49.9795C54.3995 48.5414 53.2336 47.3755 51.7955 47.3755C50.3573 47.3755 49.1914 48.5414 49.1914 49.9795V50.1748Z" fill="#8DD3BB"/>
<path  d="M55.3984 50.1748C55.3984 51.613 56.5643 52.7789 58.0025 52.7789C59.4407 52.7789 60.6066 51.613 60.6066 50.1748V49.9795C60.6066 48.5414 59.4407 47.3755 58.0025 47.3755C56.5643 47.3755 55.3984 48.5414 55.3984 49.9795V50.1748Z" fill="#8DD3BB"/>
<path  d="M61.6074 50.1748C61.6074 51.613 62.7733 52.7789 64.2115 52.7789C65.6497 52.7789 66.8155 51.613 66.8155 50.1748V49.9795C66.8155 48.5414 65.6497 47.3755 64.2115 47.3755C62.7733 47.3755 61.6074 48.5414 61.6074 49.9795V50.1748Z" fill="#8DD3BB"/>
<path  d="M67.8359 50.1748C67.8359 51.613 69.0018 52.7789 70.44 52.7789C71.8781 52.7789 73.044 51.613 73.044 50.1748V49.9795C73.044 48.5414 71.8781 47.3755 70.44 47.3755C69.0018 47.3755 67.8359 48.5414 67.8359 49.9795V50.1748Z" fill="#8DD3BB"/>
<path  d="M73.877 50.1748C73.877 51.613 75.0428 52.7789 76.481 52.7789C77.9192 52.7789 79.0851 51.613 79.0851 50.1748V49.9795C79.0851 48.5414 77.9192 47.3755 76.481 47.3755C75.0428 47.3755 73.877 48.5414 73.877 49.9795V50.1748Z" fill="#8DD3BB"/>
<path  d="M30.6934 56.6504C30.6934 58.0886 31.8592 59.2545 33.2974 59.2545C34.7356 59.2545 35.9015 58.0886 35.9015 56.6504V56.4551C35.9015 55.017 34.7356 53.8511 33.2974 53.8511C31.8592 53.8511 30.6934 55.017 30.6934 56.4551V56.6504Z" fill="#8DD3BB"/>
<path  d="M36.9219 56.6504C36.9219 58.0886 38.0878 59.2545 39.5259 59.2545C40.9641 59.2545 42.13 58.0886 42.13 56.6504V56.4551C42.13 55.017 40.9641 53.8511 39.5259 53.8511C38.0878 53.8511 36.9219 55.017 36.9219 56.4551V56.6504Z" fill="#8DD3BB"/>
<path  d="M43.1289 56.6504C43.1289 58.0886 44.2948 59.2545 45.733 59.2545C47.1711 59.2545 48.337 58.0886 48.337 56.6504V56.4551C48.337 55.017 47.1711 53.8511 45.733 53.8511C44.2948 53.8511 43.1289 55.017 43.1289 56.4551V56.6504Z" fill="#8DD3BB"/>
<path  d="M49.1914 56.6504C49.1914 58.0886 50.3573 59.2545 51.7955 59.2545C53.2336 59.2545 54.3995 58.0886 54.3995 56.6504V56.4551C54.3995 55.017 53.2336 53.8511 51.7955 53.8511C50.3573 53.8511 49.1914 55.017 49.1914 56.4551V56.6504Z" fill="#8DD3BB"/>
<path  d="M55.3984 56.6504C55.3984 58.0886 56.5643 59.2545 58.0025 59.2545C59.4407 59.2545 60.6066 58.0886 60.6066 56.6504V56.4551C60.6066 55.017 59.4407 53.8511 58.0025 53.8511C56.5643 53.8511 55.3984 55.017 55.3984 56.4551V56.6504Z" fill="#8DD3BB"/>
<path  d="M61.6074 56.6504C61.6074 58.0886 62.7733 59.2545 64.2115 59.2545C65.6497 59.2545 66.8155 58.0886 66.8155 56.6504V56.4551C66.8155 55.017 65.6497 53.8511 64.2115 53.8511C62.7733 53.8511 61.6074 55.017 61.6074 56.4551V56.6504Z" fill="#8DD3BB"/>
<path  d="M67.8359 56.6504C67.8359 58.0886 69.0018 59.2545 70.44 59.2545C71.8781 59.2545 73.044 58.0886 73.044 56.6504V56.4551C73.044 55.0169 71.8781 53.8511 70.44 53.8511C69.0018 53.8511 67.8359 55.0169 67.8359 56.4551V56.6504Z" fill="#8DD3BB"/>
<path  d="M73.877 56.6504C73.877 58.0886 75.0428 59.2545 76.481 59.2545C77.9192 59.2545 79.0851 58.0886 79.0851 56.6504V56.4551C79.0851 55.017 77.9192 53.8511 76.481 53.8511C75.0428 53.8511 73.877 55.017 73.877 56.4551V56.6504Z" fill="#8DD3BB"/>
<path  d="M80.0859 56.6504C80.0859 58.0886 81.2518 59.2545 82.69 59.2545C84.1282 59.2545 85.2941 58.0886 85.2941 56.6504V56.4551C85.2941 55.017 84.1282 53.8511 82.69 53.8511C81.2518 53.8511 80.0859 55.017 80.0859 56.4551V56.6504Z" fill="#8DD3BB"/>
<path  d="M24.4844 63.3286C24.4844 64.7668 25.6503 65.9327 27.0884 65.9327C28.5266 65.9327 29.6925 64.7668 29.6925 63.3286V63.1334C29.6925 61.6952 28.5266 60.5293 27.0884 60.5293C25.6503 60.5293 24.4844 61.6952 24.4844 63.1334V63.3286Z" fill="#8DD3BB"/>
<path  d="M30.6934 63.3286C30.6934 64.7668 31.8592 65.9327 33.2974 65.9327C34.7356 65.9327 35.9015 64.7668 35.9015 63.3286V63.1334C35.9015 61.6952 34.7356 60.5293 33.2974 60.5293C31.8592 60.5293 30.6934 61.6952 30.6934 63.1334V63.3286Z" fill="#8DD3BB"/>
<path  d="M36.9219 63.3286C36.9219 64.7668 38.0878 65.9327 39.5259 65.9327C40.9641 65.9327 42.13 64.7668 42.13 63.3286V63.1334C42.13 61.6952 40.9641 60.5293 39.5259 60.5293C38.0878 60.5293 36.9219 61.6952 36.9219 63.1334V63.3286Z" fill="#8DD3BB"/>
<path  d="M43.1289 63.3286C43.1289 64.7668 44.2948 65.9327 45.733 65.9327C47.1711 65.9327 48.337 64.7668 48.337 63.3286V63.1334C48.337 61.6952 47.1711 60.5293 45.733 60.5293C44.2948 60.5293 43.1289 61.6952 43.1289 63.1334V63.3286Z" fill="#8DD3BB"/>
<path  d="M49.1914 63.3286C49.1914 64.7668 50.3573 65.9327 51.7955 65.9327C53.2336 65.9327 54.3995 64.7668 54.3995 63.3286V63.1334C54.3995 61.6952 53.2336 60.5293 51.7955 60.5293C50.3573 60.5293 49.1914 61.6952 49.1914 63.1334V63.3286Z" fill="#8DD3BB"/>
<path  d="M55.3984 63.3286C55.3984 64.7668 56.5643 65.9327 58.0025 65.9327C59.4407 65.9327 60.6066 64.7668 60.6066 63.3286V63.1334C60.6066 61.6952 59.4407 60.5293 58.0025 60.5293C56.5643 60.5293 55.3984 61.6952 55.3984 63.1334V63.3286Z" fill="#8DD3BB"/>
<path  d="M61.6074 63.3286C61.6074 64.7668 62.7733 65.9327 64.2115 65.9327C65.6497 65.9327 66.8155 64.7668 66.8155 63.3286V63.1334C66.8155 61.6952 65.6497 60.5293 64.2115 60.5293C62.7733 60.5293 61.6074 61.6952 61.6074 63.1334V63.3286Z" fill="#8DD3BB"/>
<path  d="M67.8359 63.3287C67.8359 64.7668 69.0018 65.9327 70.44 65.9327C71.8781 65.9327 73.044 64.7668 73.044 63.3287V63.1333C73.044 61.6952 71.8781 60.5293 70.44 60.5293C69.0018 60.5293 67.8359 61.6952 67.8359 63.1333V63.3287Z" fill="#8DD3BB"/>
<path  d="M73.877 63.3286C73.877 64.7668 75.0428 65.9327 76.481 65.9327C77.9192 65.9327 79.0851 64.7668 79.0851 63.3286V63.1334C79.0851 61.6952 77.9192 60.5293 76.481 60.5293C75.0428 60.5293 73.877 61.6952 73.877 63.1334V63.3286Z" fill="#8DD3BB"/>
<path  d="M80.0859 63.3286C80.0859 64.7668 81.2518 65.9327 82.69 65.9327C84.1282 65.9327 85.2941 64.7668 85.2941 63.3286V63.1334C85.2941 61.6952 84.1282 60.5293 82.69 60.5293C81.2518 60.5293 80.0859 61.6952 80.0859 63.1334V63.3286Z" fill="#8DD3BB"/>
<path  d="M86.3164 63.3287C86.3164 64.7668 87.4823 65.9327 88.9204 65.9327C90.3586 65.9327 91.5245 64.7668 91.5245 63.3287V63.1333C91.5245 61.6952 90.3586 60.5293 88.9204 60.5293C87.4823 60.5293 86.3164 61.6952 86.3164 63.1333V63.3287Z" fill="#8DD3BB"/>
<path  d="M24.4844 69.8047C24.4844 71.2429 25.6503 72.4088 27.0884 72.4088C28.5266 72.4088 29.6925 71.2429 29.6925 69.8047V69.6094C29.6925 68.1712 28.5266 67.0054 27.0884 67.0054C25.6503 67.0054 24.4844 68.1712 24.4844 69.6094V69.8047Z" fill="#8DD3BB"/>
<path  d="M30.6934 69.8047C30.6934 71.2429 31.8592 72.4088 33.2974 72.4088C34.7356 72.4088 35.9015 71.2429 35.9015 69.8047V69.6094C35.9015 68.1712 34.7356 67.0054 33.2974 67.0054C31.8592 67.0054 30.6934 68.1712 30.6934 69.6094V69.8047Z" fill="#8DD3BB"/>
<path  d="M36.9219 69.8047C36.9219 71.2429 38.0878 72.4088 39.5259 72.4088C40.9641 72.4088 42.13 71.2429 42.13 69.8047V69.6094C42.13 68.1712 40.9641 67.0054 39.5259 67.0054C38.0878 67.0054 36.9219 68.1712 36.9219 69.6094V69.8047Z" fill="#8DD3BB"/>
<path  d="M43.1289 69.8047C43.1289 71.2429 44.2948 72.4088 45.733 72.4088C47.1711 72.4088 48.337 71.2429 48.337 69.8047V69.6094C48.337 68.1712 47.1711 67.0054 45.733 67.0054C44.2948 67.0054 43.1289 68.1712 43.1289 69.6094V69.8047Z" fill="#8DD3BB"/>
<path  d="M49.1914 69.8047C49.1914 71.2429 50.3573 72.4088 51.7955 72.4088C53.2336 72.4088 54.3995 71.2429 54.3995 69.8047V69.6094C54.3995 68.1712 53.2336 67.0054 51.7955 67.0054C50.3573 67.0054 49.1914 68.1712 49.1914 69.6094V69.8047Z" fill="#8DD3BB"/>
<path  d="M55.3984 69.8047C55.3984 71.2429 56.5643 72.4088 58.0025 72.4088C59.4407 72.4088 60.6066 71.2429 60.6066 69.8047V69.6094C60.6066 68.1712 59.4407 67.0054 58.0025 67.0054C56.5643 67.0054 55.3984 68.1712 55.3984 69.6094V69.8047Z" fill="#8DD3BB"/>
<path  d="M61.6074 69.8047C61.6074 71.2429 62.7733 72.4088 64.2115 72.4088C65.6497 72.4088 66.8155 71.2429 66.8155 69.8047V69.6094C66.8155 68.1712 65.6497 67.0054 64.2115 67.0054C62.7733 67.0054 61.6074 68.1712 61.6074 69.6094V69.8047Z" fill="#8DD3BB"/>
<path  d="M67.8359 69.8047C67.8359 71.2429 69.0018 72.4088 70.44 72.4088C71.8781 72.4088 73.044 71.2429 73.044 69.8047V69.6094C73.044 68.1712 71.8781 67.0054 70.44 67.0054C69.0018 67.0054 67.8359 68.1712 67.8359 69.6094V69.8047Z" fill="#8DD3BB"/>
<path  d="M73.877 69.8047C73.877 71.2429 75.0428 72.4088 76.481 72.4088C77.9192 72.4088 79.0851 71.2429 79.0851 69.8047V69.6094C79.0851 68.1712 77.9192 67.0054 76.481 67.0054C75.0428 67.0054 73.877 68.1712 73.877 69.6094V69.8047Z" fill="#8DD3BB"/>
<path  d="M80.0859 69.8047C80.0859 71.2429 81.2518 72.4088 82.69 72.4088C84.1282 72.4088 85.2941 71.2429 85.2941 69.8047V69.6094C85.2941 68.1712 84.1282 67.0054 82.69 67.0054C81.2518 67.0054 80.0859 68.1712 80.0859 69.6094V69.8047Z" fill="#8DD3BB"/>
<path  d="M86.3164 69.8047C86.3164 71.2429 87.4823 72.4088 88.9204 72.4088C90.3586 72.4088 91.5245 71.2429 91.5245 69.8047V69.6094C91.5245 68.1712 90.3586 67.0054 88.9204 67.0054C87.4823 67.0054 86.3164 68.1712 86.3164 69.6094V69.8047Z" fill="#8DD3BB"/>
<path  d="M92.5234 69.8047C92.5234 71.2429 93.6893 72.4088 95.1275 72.4088C96.5657 72.4088 97.7316 71.2429 97.7316 69.8047V69.6094C97.7316 68.1712 96.5657 67.0054 95.1275 67.0054C93.6893 67.0054 92.5234 68.1712 92.5234 69.6094V69.8047Z" fill="#8DD3BB"/>
<path  d="M98.7539 69.8047C98.7539 71.2429 99.9198 72.4088 101.358 72.4088C102.796 72.4088 103.962 71.2429 103.962 69.8047V69.6094C103.962 68.1712 102.796 67.0054 101.358 67.0054C99.9198 67.0054 98.7539 68.1712 98.7539 69.6094V69.8047Z" fill="#8DD3BB"/>
<path  d="M104.795 69.8047C104.795 71.2429 105.961 72.4088 107.399 72.4088C108.837 72.4088 110.003 71.2429 110.003 69.8047V69.6094C110.003 68.1712 108.837 67.0054 107.399 67.0054C105.961 67.0054 104.795 68.1712 104.795 69.6094V69.8047Z" fill="#8DD3BB"/>
<path  d="M30.6934 76.4834C30.6934 77.9216 31.8592 79.0875 33.2974 79.0875C34.7356 79.0875 35.9015 77.9216 35.9015 76.4834V76.2881C35.9015 74.85 34.7356 73.6841 33.2974 73.6841C31.8592 73.6841 30.6934 74.85 30.6934 76.2881V76.4834Z" fill="#8DD3BB"/>
<path  d="M36.9219 76.4834C36.9219 77.9216 38.0878 79.0875 39.5259 79.0875C40.9641 79.0875 42.13 77.9216 42.13 76.4834V76.2881C42.13 74.85 40.9641 73.6841 39.5259 73.6841C38.0878 73.6841 36.9219 74.85 36.9219 76.2881V76.4834Z" fill="#8DD3BB"/>
<path  d="M43.1289 76.4834C43.1289 77.9216 44.2948 79.0875 45.733 79.0875C47.1711 79.0875 48.337 77.9216 48.337 76.4834V76.2881C48.337 74.85 47.1711 73.6841 45.733 73.6841C44.2948 73.6841 43.1289 74.85 43.1289 76.2881V76.4834Z" fill="#8DD3BB"/>
<path  d="M49.1914 76.4834C49.1914 77.9216 50.3573 79.0875 51.7955 79.0875C53.2336 79.0875 54.3995 77.9216 54.3995 76.4834V76.2881C54.3995 74.85 53.2336 73.6841 51.7955 73.6841C50.3573 73.6841 49.1914 74.85 49.1914 76.2881V76.4834Z" fill="#8DD3BB"/>
<path  d="M55.3984 76.4834C55.3984 77.9216 56.5643 79.0875 58.0025 79.0875C59.4407 79.0875 60.6066 77.9216 60.6066 76.4834V76.2881C60.6066 74.85 59.4407 73.6841 58.0025 73.6841C56.5643 73.6841 55.3984 74.85 55.3984 76.2881V76.4834Z" fill="#8DD3BB"/>
<path  d="M61.6074 76.4834C61.6074 77.9216 62.7733 79.0875 64.2115 79.0875C65.6497 79.0875 66.8155 77.9216 66.8155 76.4834V76.2881C66.8155 74.85 65.6497 73.6841 64.2115 73.6841C62.7733 73.6841 61.6074 74.85 61.6074 76.2881V76.4834Z" fill="#8DD3BB"/>
<path  d="M67.8359 76.4834C67.8359 77.9216 69.0018 79.0875 70.44 79.0875C71.8781 79.0875 73.044 77.9216 73.044 76.4834V76.2881C73.044 74.8499 71.8781 73.6841 70.44 73.6841C69.0018 73.6841 67.8359 74.8499 67.8359 76.2881V76.4834Z" fill="#8DD3BB"/>
<path  d="M73.877 76.4834C73.877 77.9216 75.0428 79.0875 76.481 79.0875C77.9192 79.0875 79.0851 77.9216 79.0851 76.4834V76.2881C79.0851 74.85 77.9192 73.6841 76.481 73.6841C75.0428 73.6841 73.877 74.85 73.877 76.2881V76.4834Z" fill="#8DD3BB"/>
<path  d="M80.0859 76.4834C80.0859 77.9216 81.2518 79.0875 82.69 79.0875C84.1282 79.0875 85.2941 77.9216 85.2941 76.4834V76.2881C85.2941 74.85 84.1282 73.6841 82.69 73.6841C81.2518 73.6841 80.0859 74.85 80.0859 76.2881V76.4834Z" fill="#8DD3BB"/>
<path  d="M86.3164 76.4834C86.3164 77.9216 87.4823 79.0875 88.9204 79.0875C90.3586 79.0875 91.5245 77.9216 91.5245 76.4834V76.2881C91.5245 74.8499 90.3586 73.6841 88.9204 73.6841C87.4823 73.6841 86.3164 74.8499 86.3164 76.2881V76.4834Z" fill="#8DD3BB"/>
<path  d="M92.5234 76.4834C92.5234 77.9216 93.6893 79.0875 95.1275 79.0875C96.5657 79.0875 97.7316 77.9216 97.7316 76.4834V76.2881C97.7316 74.85 96.5657 73.6841 95.1275 73.6841C93.6893 73.6841 92.5234 74.85 92.5234 76.2881V76.4834Z" fill="#8DD3BB"/>
<path  d="M98.7539 76.4834C98.7539 77.9216 99.9198 79.0875 101.358 79.0875C102.796 79.0875 103.962 77.9216 103.962 76.4834V76.2881C103.962 74.85 102.796 73.6841 101.358 73.6841C99.9198 73.6841 98.7539 74.85 98.7539 76.2881V76.4834Z" fill="#8DD3BB"/>
<path  d="M104.795 76.4834C104.795 77.9216 105.961 79.0875 107.399 79.0875C108.837 79.0875 110.003 77.9216 110.003 76.4834V76.2881C110.003 74.8499 108.837 73.6841 107.399 73.6841C105.961 73.6841 104.795 74.8499 104.795 76.2881V76.4834Z" fill="#8DD3BB"/>
<path  d="M30.6934 82.9585C30.6934 84.3967 31.8592 85.5626 33.2974 85.5626C34.7356 85.5626 35.9015 84.3967 35.9015 82.9585V82.7632C35.9015 81.3251 34.7356 80.1592 33.2974 80.1592C31.8592 80.1592 30.6934 81.3251 30.6934 82.7632V82.9585Z" fill="#8DD3BB"/>
<path  d="M36.9219 82.9585C36.9219 84.3967 38.0878 85.5626 39.5259 85.5626C40.9641 85.5626 42.13 84.3967 42.13 82.9585V82.7632C42.13 81.3251 40.9641 80.1592 39.5259 80.1592C38.0878 80.1592 36.9219 81.3251 36.9219 82.7632V82.9585Z" fill="#8DD3BB"/>
<path  d="M43.1289 82.9585C43.1289 84.3967 44.2948 85.5626 45.733 85.5626C47.1711 85.5626 48.337 84.3967 48.337 82.9585V82.7632C48.337 81.3251 47.1711 80.1592 45.733 80.1592C44.2948 80.1592 43.1289 81.3251 43.1289 82.7632V82.9585Z" fill="#8DD3BB"/>
<path  d="M49.1914 82.9585C49.1914 84.3967 50.3573 85.5626 51.7955 85.5626C53.2336 85.5626 54.3995 84.3967 54.3995 82.9585V82.7632C54.3995 81.3251 53.2336 80.1592 51.7955 80.1592C50.3573 80.1592 49.1914 81.3251 49.1914 82.7632V82.9585Z" fill="#8DD3BB"/>
<path  d="M55.3984 82.9585C55.3984 84.3967 56.5643 85.5626 58.0025 85.5626C59.4407 85.5626 60.6066 84.3967 60.6066 82.9585V82.7632C60.6066 81.3251 59.4407 80.1592 58.0025 80.1592C56.5643 80.1592 55.3984 81.3251 55.3984 82.7632V82.9585Z" fill="#8DD3BB"/>
<path  d="M61.6074 82.9585C61.6074 84.3967 62.7733 85.5626 64.2115 85.5626C65.6497 85.5626 66.8155 84.3967 66.8155 82.9585V82.7632C66.8155 81.3251 65.6497 80.1592 64.2115 80.1592C62.7733 80.1592 61.6074 81.3251 61.6074 82.7632V82.9585Z" fill="#8DD3BB"/>
<path  d="M67.8359 82.9585C67.8359 84.3967 69.0018 85.5626 70.44 85.5626C71.8781 85.5626 73.044 84.3967 73.044 82.9585V82.7632C73.044 81.325 71.8781 80.1592 70.44 80.1592C69.0018 80.1592 67.8359 81.325 67.8359 82.7632V82.9585Z" fill="#8DD3BB"/>
<path  d="M73.877 82.9585C73.877 84.3967 75.0428 85.5626 76.481 85.5626C77.9192 85.5626 79.0851 84.3967 79.0851 82.9585V82.7632C79.0851 81.3251 77.9192 80.1592 76.481 80.1592C75.0428 80.1592 73.877 81.3251 73.877 82.7632V82.9585Z" fill="#8DD3BB"/>
<path  d="M80.0859 82.9585C80.0859 84.3967 81.2518 85.5626 82.69 85.5626C84.1282 85.5626 85.2941 84.3967 85.2941 82.9585V82.7632C85.2941 81.3251 84.1282 80.1592 82.69 80.1592C81.2518 80.1592 80.0859 81.3251 80.0859 82.7632V82.9585Z" fill="#8DD3BB"/>
<path  d="M86.3164 82.9585C86.3164 84.3967 87.4823 85.5626 88.9204 85.5626C90.3586 85.5626 91.5245 84.3967 91.5245 82.9585V82.7632C91.5245 81.325 90.3586 80.1592 88.9204 80.1592C87.4823 80.1592 86.3164 81.325 86.3164 82.7632V82.9585Z" fill="#8DD3BB"/>
<path  d="M92.5234 82.9585C92.5234 84.3967 93.6893 85.5626 95.1275 85.5626C96.5657 85.5626 97.7316 84.3967 97.7316 82.9585V82.7632C97.7316 81.3251 96.5657 80.1592 95.1275 80.1592C93.6893 80.1592 92.5234 81.3251 92.5234 82.7632V82.9585Z" fill="#8DD3BB"/>
<path  d="M98.7539 82.9585C98.7539 84.3967 99.9198 85.5626 101.358 85.5626C102.796 85.5626 103.962 84.3967 103.962 82.9585V82.7632C103.962 81.3251 102.796 80.1592 101.358 80.1592C99.9198 80.1592 98.7539 81.3251 98.7539 82.7632V82.9585Z" fill="#8DD3BB"/>
<path  d="M36.9219 89.6148C36.9219 91.0529 38.0878 92.2188 39.5259 92.2188C40.9641 92.2188 42.13 91.0529 42.13 89.6148V89.4195C42.13 87.9813 40.9641 86.8154 39.5259 86.8154C38.0878 86.8154 36.9219 87.9813 36.9219 89.4195V89.6148Z" fill="#8DD3BB"/>
<path  d="M43.1289 89.6148C43.1289 91.0529 44.2948 92.2188 45.733 92.2188C47.1711 92.2188 48.337 91.0529 48.337 89.6148V89.4195C48.337 87.9813 47.1711 86.8154 45.733 86.8154C44.2948 86.8154 43.1289 87.9813 43.1289 89.4195V89.6148Z" fill="#8DD3BB"/>
<path  d="M49.1914 89.6148C49.1914 91.0529 50.3573 92.2188 51.7955 92.2188C53.2336 92.2188 54.3995 91.0529 54.3995 89.6148V89.4195C54.3995 87.9813 53.2336 86.8154 51.7955 86.8154C50.3573 86.8154 49.1914 87.9813 49.1914 89.4195V89.6148Z" fill="#8DD3BB"/>
<path  d="M55.3984 89.6148C55.3984 91.0529 56.5643 92.2188 58.0025 92.2188C59.4407 92.2188 60.6066 91.0529 60.6066 89.6148V89.4195C60.6066 87.9813 59.4407 86.8154 58.0025 86.8154C56.5643 86.8154 55.3984 87.9813 55.3984 89.4195V89.6148Z" fill="#8DD3BB"/>
<path  d="M61.6074 89.6148C61.6074 91.0529 62.7733 92.2188 64.2115 92.2188C65.6497 92.2188 66.8155 91.0529 66.8155 89.6148V89.4195C66.8155 87.9813 65.6497 86.8154 64.2115 86.8154C62.7733 86.8154 61.6074 87.9813 61.6074 89.4195V89.6148Z" fill="#8DD3BB"/>
<path  d="M67.8359 89.6148C67.8359 91.053 69.0018 92.2188 70.44 92.2188C71.8781 92.2188 73.044 91.053 73.044 89.6148V89.4195C73.044 87.9813 71.8781 86.8154 70.44 86.8154C69.0018 86.8154 67.8359 87.9813 67.8359 89.4195V89.6148Z" fill="#8DD3BB"/>
<path  d="M73.877 89.6148C73.877 91.0529 75.0428 92.2188 76.481 92.2188C77.9192 92.2188 79.0851 91.0529 79.0851 89.6148V89.4195C79.0851 87.9813 77.9192 86.8154 76.481 86.8154C75.0428 86.8154 73.877 87.9813 73.877 89.4195V89.6148Z" fill="#8DD3BB"/>
<path  d="M80.0859 89.6148C80.0859 91.0529 81.2518 92.2188 82.69 92.2188C84.1282 92.2188 85.2941 91.0529 85.2941 89.6148V89.4195C85.2941 87.9813 84.1282 86.8154 82.69 86.8154C81.2518 86.8154 80.0859 87.9813 80.0859 89.4195V89.6148Z" fill="#8DD3BB"/>
<path  d="M86.3164 89.6148C86.3164 91.053 87.4823 92.2188 88.9204 92.2188C90.3586 92.2188 91.5245 91.053 91.5245 89.6148V89.4195C91.5245 87.9813 90.3586 86.8154 88.9204 86.8154C87.4823 86.8154 86.3164 87.9813 86.3164 89.4195V89.6148Z" fill="#8DD3BB"/>
<path  d="M92.5234 89.6148C92.5234 91.0529 93.6893 92.2188 95.1275 92.2188C96.5657 92.2188 97.7316 91.0529 97.7316 89.6148V89.4195C97.7316 87.9813 96.5657 86.8154 95.1275 86.8154C93.6893 86.8154 92.5234 87.9813 92.5234 89.4195V89.6148Z" fill="#8DD3BB"/>
<path  d="M98.7539 89.6148C98.7539 91.0529 99.9198 92.2188 101.358 92.2188C102.796 92.2188 103.962 91.0529 103.962 89.6148V89.4195C103.962 87.9813 102.796 86.8154 101.358 86.8154C99.9198 86.8154 98.7539 87.9813 98.7539 89.4195V89.6148Z" fill="#8DD3BB"/>
<path  d="M43.1289 96.1128C43.1289 97.551 44.2948 98.7169 45.733 98.7169C47.1711 98.7169 48.337 97.551 48.337 96.1128V95.9175C48.337 94.4794 47.1711 93.3135 45.733 93.3135C44.2948 93.3135 43.1289 94.4794 43.1289 95.9175V96.1128Z" fill="#8DD3BB"/>
<path  d="M49.1914 96.1128C49.1914 97.551 50.3573 98.7169 51.7955 98.7169C53.2336 98.7169 54.3995 97.551 54.3995 96.1128V95.9175C54.3995 94.4794 53.2336 93.3135 51.7955 93.3135C50.3573 93.3135 49.1914 94.4794 49.1914 95.9175V96.1128Z" fill="#8DD3BB"/>
<path  d="M55.3984 96.1128C55.3984 97.551 56.5643 98.7169 58.0025 98.7169C59.4407 98.7169 60.6066 97.551 60.6066 96.1128V95.9175C60.6066 94.4794 59.4407 93.3135 58.0025 93.3135C56.5643 93.3135 55.3984 94.4794 55.3984 95.9175V96.1128Z" fill="#8DD3BB"/>
<path  d="M61.6074 96.1128C61.6074 97.551 62.7733 98.7169 64.2115 98.7169C65.6497 98.7169 66.8155 97.551 66.8155 96.1128V95.9175C66.8155 94.4794 65.6497 93.3135 64.2115 93.3135C62.7733 93.3135 61.6074 94.4794 61.6074 95.9175V96.1128Z" fill="#8DD3BB"/>
<path  d="M67.8359 96.1128C67.8359 97.551 69.0018 98.7169 70.44 98.7169C71.8781 98.7169 73.044 97.551 73.044 96.1128V95.9175C73.044 94.4793 71.8781 93.3135 70.44 93.3135C69.0018 93.3135 67.8359 94.4793 67.8359 95.9175V96.1128Z" fill="#8DD3BB"/>
<path  d="M73.877 96.1128C73.877 97.551 75.0428 98.7169 76.481 98.7169C77.9192 98.7169 79.0851 97.551 79.0851 96.1128V95.9175C79.0851 94.4794 77.9192 93.3135 76.481 93.3135C75.0428 93.3135 73.877 94.4794 73.877 95.9175V96.1128Z" fill="#8DD3BB"/>
<path  d="M80.0859 96.1128C80.0859 97.551 81.2518 98.7169 82.69 98.7169C84.1282 98.7169 85.2941 97.551 85.2941 96.1128V95.9175C85.2941 94.4794 84.1282 93.3135 82.69 93.3135C81.2518 93.3135 80.0859 94.4794 80.0859 95.9175V96.1128Z" fill="#8DD3BB"/>
<path  d="M86.3164 96.1128C86.3164 97.551 87.4823 98.7169 88.9204 98.7169C90.3586 98.7169 91.5245 97.551 91.5245 96.1128V95.9175C91.5245 94.4793 90.3586 93.3135 88.9204 93.3135C87.4823 93.3135 86.3164 94.4793 86.3164 95.9175V96.1128Z" fill="#8DD3BB"/>
<path  d="M92.5234 96.1128C92.5234 97.551 93.6893 98.7169 95.1275 98.7169C96.5657 98.7169 97.7316 97.551 97.7316 96.1128V95.9175C97.7316 94.4794 96.5657 93.3135 95.1275 93.3135C93.6893 93.3135 92.5234 94.4794 92.5234 95.9175V96.1128Z" fill="#8DD3BB"/>
<path  d="M98.7539 96.1128C98.7539 97.551 99.9198 98.7169 101.358 98.7169C102.796 98.7169 103.962 97.551 103.962 96.1128V95.9175C103.962 94.4794 102.796 93.3135 101.358 93.3135C99.9198 93.3135 98.7539 94.4794 98.7539 95.9175V96.1128Z" fill="#8DD3BB"/>
<path  d="M49.1914 102.769C49.1914 104.207 50.3573 105.373 51.7955 105.373C53.2336 105.373 54.3995 104.207 54.3995 102.769V102.574C54.3995 101.136 53.2336 99.9697 51.7955 99.9697C50.3573 99.9697 49.1914 101.136 49.1914 102.574V102.769Z" fill="#8DD3BB"/>
<path  d="M55.3984 102.769C55.3984 104.207 56.5643 105.373 58.0025 105.373C59.4407 105.373 60.6066 104.207 60.6066 102.769V102.574C60.6066 101.136 59.4407 99.9697 58.0025 99.9697C56.5643 99.9697 55.3984 101.136 55.3984 102.574V102.769Z" fill="#8DD3BB"/>
<path  d="M61.6074 102.769C61.6074 104.207 62.7733 105.373 64.2115 105.373C65.6497 105.373 66.8155 104.207 66.8155 102.769V102.574C66.8155 101.136 65.6497 99.9697 64.2115 99.9697C62.7733 99.9697 61.6074 101.136 61.6074 102.574V102.769Z" fill="#8DD3BB"/>
<path  d="M67.8359 102.769C67.8359 104.207 69.0018 105.373 70.44 105.373C71.8781 105.373 73.044 104.207 73.044 102.769V102.574C73.044 101.136 71.8781 99.9697 70.44 99.9697C69.0018 99.9697 67.8359 101.136 67.8359 102.574V102.769Z" fill="#8DD3BB"/>
<path  d="M73.877 102.769C73.877 104.207 75.0428 105.373 76.481 105.373C77.9192 105.373 79.0851 104.207 79.0851 102.769V102.574C79.0851 101.136 77.9192 99.9697 76.481 99.9697C75.0428 99.9697 73.877 101.136 73.877 102.574V102.769Z" fill="#8DD3BB"/>
<path  d="M80.0859 102.769C80.0859 104.207 81.2518 105.373 82.69 105.373C84.1282 105.373 85.2941 104.207 85.2941 102.769V102.574C85.2941 101.136 84.1282 99.9697 82.69 99.9697C81.2518 99.9697 80.0859 101.136 80.0859 102.574V102.769Z" fill="#8DD3BB"/>
<path  d="M86.3164 102.769C86.3164 104.207 87.4823 105.373 88.9204 105.373C90.3586 105.373 91.5245 104.207 91.5245 102.769V102.574C91.5245 101.136 90.3586 99.9697 88.9204 99.9697C87.4823 99.9697 86.3164 101.136 86.3164 102.574V102.769Z" fill="#8DD3BB"/>
<path  d="M92.5234 102.769C92.5234 104.207 93.6893 105.373 95.1275 105.373C96.5657 105.373 97.7316 104.207 97.7316 102.769V102.574C97.7316 101.136 96.5657 99.9697 95.1275 99.9697C93.6893 99.9697 92.5234 101.136 92.5234 102.574V102.769Z" fill="#8DD3BB"/>
<path  d="M43.1289 109.245C43.1289 110.683 44.2948 111.849 45.733 111.849C47.1711 111.849 48.337 110.683 48.337 109.245V109.049C48.337 107.611 47.1711 106.445 45.733 106.445C44.2948 106.445 43.1289 107.611 43.1289 109.049V109.245Z" fill="#8DD3BB"/>
<path  d="M49.1914 109.245C49.1914 110.683 50.3573 111.849 51.7955 111.849C53.2336 111.849 54.3995 110.683 54.3995 109.245V109.049C54.3995 107.611 53.2336 106.445 51.7955 106.445C50.3573 106.445 49.1914 107.611 49.1914 109.049V109.245Z" fill="#8DD3BB"/>
<path  d="M55.3984 109.245C55.3984 110.683 56.5643 111.849 58.0025 111.849C59.4407 111.849 60.6066 110.683 60.6066 109.245V109.049C60.6066 107.611 59.4407 106.445 58.0025 106.445C56.5643 106.445 55.3984 107.611 55.3984 109.049V109.245Z" fill="#8DD3BB"/>
<path  d="M61.6074 109.245C61.6074 110.683 62.7733 111.849 64.2115 111.849C65.6497 111.849 66.8155 110.683 66.8155 109.245V109.049C66.8155 107.611 65.6497 106.445 64.2115 106.445C62.7733 106.445 61.6074 107.611 61.6074 109.049V109.245Z" fill="#8DD3BB"/>
<path  d="M67.8359 109.245C67.8359 110.683 69.0018 111.849 70.44 111.849C71.8781 111.849 73.044 110.683 73.044 109.245V109.049C73.044 107.611 71.8781 106.445 70.44 106.445C69.0018 106.445 67.8359 107.611 67.8359 109.049V109.245Z" fill="#8DD3BB"/>
<path  d="M73.877 109.245C73.877 110.683 75.0428 111.849 76.481 111.849C77.9192 111.849 79.0851 110.683 79.0851 109.245V109.049C79.0851 107.611 77.9192 106.445 76.481 106.445C75.0428 106.445 73.877 107.611 73.877 109.049V109.245Z" fill="#8DD3BB"/>
<path  d="M80.0859 109.245C80.0859 110.683 81.2518 111.849 82.69 111.849C84.1282 111.849 85.2941 110.683 85.2941 109.245V109.049C85.2941 107.611 84.1282 106.445 82.69 106.445C81.2518 106.445 80.0859 107.611 80.0859 109.049V109.245Z" fill="#8DD3BB"/>
<path  d="M43.1289 115.743C43.1289 117.181 44.2948 118.347 45.733 118.347C47.1711 118.347 48.337 117.181 48.337 115.743V115.548C48.337 114.11 47.1711 112.944 45.733 112.944C44.2948 112.944 43.1289 114.11 43.1289 115.548V115.743Z" fill="#8DD3BB"/>
<path  d="M49.1914 115.743C49.1914 117.181 50.3573 118.347 51.7955 118.347C53.2336 118.347 54.3995 117.181 54.3995 115.743V115.548C54.3995 114.11 53.2336 112.944 51.7955 112.944C50.3573 112.944 49.1914 114.11 49.1914 115.548V115.743Z" fill="#8DD3BB"/>
<path  d="M55.3984 115.743C55.3984 117.181 56.5643 118.347 58.0025 118.347C59.4407 118.347 60.6066 117.181 60.6066 115.743V115.548C60.6066 114.11 59.4407 112.944 58.0025 112.944C56.5643 112.944 55.3984 114.11 55.3984 115.548V115.743Z" fill="#8DD3BB"/>
<path  d="M61.6074 115.743C61.6074 117.181 62.7733 118.347 64.2115 118.347C65.6497 118.347 66.8155 117.181 66.8155 115.743V115.548C66.8155 114.11 65.6497 112.944 64.2115 112.944C62.7733 112.944 61.6074 114.11 61.6074 115.548V115.743Z" fill="#8DD3BB"/>
<path  d="M67.8359 115.743C67.8359 117.181 69.0018 118.347 70.44 118.347C71.8781 118.347 73.044 117.181 73.044 115.743V115.548C73.044 114.11 71.8781 112.944 70.44 112.944C69.0018 112.944 67.8359 114.11 67.8359 115.548V115.743Z" fill="#8DD3BB"/>
<path  d="M73.877 115.743C73.877 117.181 75.0428 118.347 76.481 118.347C77.9192 118.347 79.0851 117.181 79.0851 115.743V115.548C79.0851 114.11 77.9192 112.944 76.481 112.944C75.0428 112.944 73.877 114.11 73.877 115.548V115.743Z" fill="#8DD3BB"/>
<path  d="M80.0859 115.743C80.0859 117.181 81.2518 118.347 82.69 118.347C84.1282 118.347 85.2941 117.181 85.2941 115.743V115.548C85.2941 114.11 84.1282 112.944 82.69 112.944C81.2518 112.944 80.0859 114.11 80.0859 115.548V115.743Z" fill="#8DD3BB"/>
<path  d="M43.1289 122.399C43.1289 123.837 44.2948 125.003 45.733 125.003C47.1711 125.003 48.337 123.837 48.337 122.399V122.204C48.337 120.765 47.1711 119.6 45.733 119.6C44.2948 119.6 43.1289 120.765 43.1289 122.204V122.399Z" fill="#8DD3BB"/>
<path  d="M49.1914 122.399C49.1914 123.837 50.3573 125.003 51.7955 125.003C53.2336 125.003 54.3995 123.837 54.3995 122.399V122.204C54.3995 120.765 53.2336 119.6 51.7955 119.6C50.3573 119.6 49.1914 120.765 49.1914 122.204V122.399Z" fill="#8DD3BB"/>
<path  d="M55.3984 122.399C55.3984 123.837 56.5643 125.003 58.0025 125.003C59.4407 125.003 60.6066 123.837 60.6066 122.399V122.204C60.6066 120.765 59.4407 119.6 58.0025 119.6C56.5643 119.6 55.3984 120.765 55.3984 122.204V122.399Z" fill="#8DD3BB"/>
<path  d="M61.6074 122.399C61.6074 123.837 62.7733 125.003 64.2115 125.003C65.6497 125.003 66.8155 123.837 66.8155 122.399V122.204C66.8155 120.765 65.6497 119.6 64.2115 119.6C62.7733 119.6 61.6074 120.765 61.6074 122.204V122.399Z" fill="#8DD3BB"/>
<path  d="M67.8359 122.399C67.8359 123.837 69.0018 125.003 70.44 125.003C71.8781 125.003 73.044 123.837 73.044 122.399V122.204C73.044 120.765 71.8781 119.6 70.44 119.6C69.0018 119.6 67.8359 120.765 67.8359 122.204V122.399Z" fill="#8DD3BB"/>
<path  d="M73.877 122.399C73.877 123.837 75.0428 125.003 76.481 125.003C77.9192 125.003 79.0851 123.837 79.0851 122.399V122.204C79.0851 120.765 77.9192 119.6 76.481 119.6C75.0428 119.6 73.877 120.765 73.877 122.204V122.399Z" fill="#8DD3BB"/>
<path  d="M43.1289 128.875C43.1289 130.313 44.2948 131.479 45.733 131.479C47.1711 131.479 48.337 130.313 48.337 128.875V128.679C48.337 127.241 47.1711 126.075 45.733 126.075C44.2948 126.075 43.1289 127.241 43.1289 128.679V128.875Z" fill="#8DD3BB"/>
<path  d="M49.1914 128.875C49.1914 130.313 50.3573 131.479 51.7955 131.479C53.2336 131.479 54.3995 130.313 54.3995 128.875V128.679C54.3995 127.241 53.2336 126.075 51.7955 126.075C50.3573 126.075 49.1914 127.241 49.1914 128.679V128.875Z" fill="#8DD3BB"/>
<path  d="M55.3984 128.875C55.3984 130.313 56.5643 131.479 58.0025 131.479C59.4407 131.479 60.6066 130.313 60.6066 128.875V128.679C60.6066 127.241 59.4407 126.075 58.0025 126.075C56.5643 126.075 55.3984 127.241 55.3984 128.679V128.875Z" fill="#8DD3BB"/>
<path  d="M61.6074 128.875C61.6074 130.313 62.7733 131.479 64.2115 131.479C65.6497 131.479 66.8155 130.313 66.8155 128.875V128.679C66.8155 127.241 65.6497 126.075 64.2115 126.075C62.7733 126.075 61.6074 127.241 61.6074 128.679V128.875Z" fill="#8DD3BB"/>
<path  d="M67.8359 128.875C67.8359 130.313 69.0018 131.479 70.44 131.479C71.8781 131.479 73.044 130.313 73.044 128.875V128.679C73.044 127.241 71.8781 126.075 70.44 126.075C69.0018 126.075 67.8359 127.241 67.8359 128.679V128.875Z" fill="#8DD3BB"/>
<path  d="M73.877 128.875C73.877 130.313 75.0428 131.479 76.481 131.479C77.9192 131.479 79.0851 130.313 79.0851 128.875V128.679C79.0851 127.241 77.9192 126.075 76.481 126.075C75.0428 126.075 73.877 127.241 73.877 128.679V128.875Z" fill="#8DD3BB"/>
<path  d="M43.1289 135.554C43.1289 136.992 44.2948 138.158 45.733 138.158C47.1711 138.158 48.337 136.992 48.337 135.554V135.358C48.337 133.92 47.1711 132.754 45.733 132.754C44.2948 132.754 43.1289 133.92 43.1289 135.358V135.554Z" fill="#8DD3BB"/>
<path  d="M49.1914 135.554C49.1914 136.992 50.3573 138.158 51.7955 138.158C53.2336 138.158 54.3995 136.992 54.3995 135.554V135.358C54.3995 133.92 53.2336 132.754 51.7955 132.754C50.3573 132.754 49.1914 133.92 49.1914 135.358V135.554Z" fill="#8DD3BB"/>
<path  d="M55.3984 135.554C55.3984 136.992 56.5643 138.158 58.0025 138.158C59.4407 138.158 60.6066 136.992 60.6066 135.554V135.358C60.6066 133.92 59.4407 132.754 58.0025 132.754C56.5643 132.754 55.3984 133.92 55.3984 135.358V135.554Z" fill="#8DD3BB"/>
<path  d="M61.6074 135.554C61.6074 136.992 62.7733 138.158 64.2115 138.158C65.6497 138.158 66.8155 136.992 66.8155 135.554V135.358C66.8155 133.92 65.6497 132.754 64.2115 132.754C62.7733 132.754 61.6074 133.92 61.6074 135.358V135.554Z" fill="#8DD3BB"/>
<path  d="M67.8359 135.554C67.8359 136.992 69.0018 138.158 70.44 138.158C71.8781 138.158 73.044 136.992 73.044 135.554V135.358C73.044 133.92 71.8781 132.754 70.44 132.754C69.0018 132.754 67.8359 133.92 67.8359 135.358V135.554Z" fill="#8DD3BB"/>
</g>
</svg>
