<svg width="174" height="48" viewBox="0 0 174 48" fill="none" xmlns="http://www.w3.org/2000/svg">
<path d="M5.66667 24C5.66667 22.5272 4.47276 21.3333 3 21.3333C1.52724 21.3333 0.333336 22.5272 0.333336 24C0.333336 25.4728 1.52724 26.6667 3 26.6667C4.47276 26.6667 5.66667 25.4728 5.66667 24ZM39 23.5L3 23.5L3 24.5L39 24.5L39 23.5Z" fill="black"/>
<path d="M80.4947 43.5H77.999C77.7483 43.4999 77.5015 43.437 77.2814 43.3169C77.0612 43.1969 76.8747 43.0235 76.7388 42.8128C76.6029 42.602 76.5221 42.3606 76.5036 42.1105C76.4851 41.8604 76.5297 41.6097 76.6331 41.3812L82.6762 28.0453L73.6022 27.8438L70.2928 31.8534C69.6618 32.6466 69.1584 33 67.874 33H66.194C65.928 33.0086 65.6639 32.9529 65.424 32.8377C65.1841 32.7224 64.9755 32.5511 64.8159 32.3381C64.5928 32.0372 64.3734 31.5272 64.5872 30.7997L66.4453 24.1434C66.4593 24.0938 66.4762 24.0441 66.495 23.9953C66.4959 23.9907 66.4959 23.9859 66.495 23.9813C66.4756 23.9325 66.459 23.8828 66.4453 23.8322L64.5853 17.1337C64.3837 16.4203 64.604 15.9216 64.8253 15.6281C64.9739 15.431 65.1666 15.2715 65.3881 15.1624C65.6095 15.0533 65.8534 14.9977 66.1003 15L67.874 15C68.8331 15 69.764 15.4303 70.3115 16.125L73.5525 20.0672L82.6762 19.9322L76.635 6.61969C76.5314 6.39136 76.4867 6.14071 76.505 5.89065C76.5233 5.6406 76.6039 5.39911 76.7396 5.18827C76.8753 4.97743 77.0616 4.80396 77.2817 4.68373C77.5017 4.56349 77.7483 4.50033 77.999 4.5L80.5218 4.5C80.8738 4.50707 81.2197 4.59334 81.5337 4.75239C81.8478 4.91145 82.1219 5.1392 82.3359 5.41875L94.0593 19.6688L99.4753 19.5262C99.8718 19.5047 100.971 19.4972 101.225 19.4972C106.405 19.5 109.499 21.1819 109.499 24C109.499 24.8869 109.145 26.5313 106.774 27.5775C105.374 28.1963 103.507 28.5094 101.223 28.5094C100.972 28.5094 99.8756 28.5019 99.4734 28.4803L94.0584 28.3359L82.3059 42.5859C82.0918 42.8643 81.8178 43.0909 81.5043 43.2491C81.1908 43.4073 80.8458 43.4931 80.4947 43.5Z" fill="#112211"/>
<path d="M173.667 24C173.667 22.5272 172.473 21.3333 171 21.3333C169.527 21.3333 168.333 22.5272 168.333 24C168.333 25.4728 169.527 26.6667 171 26.6667C172.473 26.6667 173.667 25.4728 173.667 24ZM171 23.5L135 23.5L135 24.5L171 24.5L171 23.5Z" fill="black"/>
</svg>
