<svg width="20" height="16" viewBox="0 0 20 16" fill="none" xmlns="http://www.w3.org/2000/svg"><path d="M19.7029 2.26137C19.0071 2.5697 18.2596 2.77803 17.4737 2.8722C18.2846 2.38703 18.8912 1.62342 19.1804 0.723866C18.4186 1.17636 17.5849 1.49486 16.7154 1.66553C16.1307 1.04125 15.3563 0.627471 14.5124 0.488428C13.6684 0.349384 12.8022 0.492859 12.0481 0.896577C11.2941 1.30029 10.6944 1.94167 10.3422 2.72112C9.99003 3.50057 9.90503 4.37449 10.1004 5.2072C8.55682 5.1297 7.04677 4.72849 5.66827 4.02962C4.28977 3.33075 3.07362 2.34983 2.09875 1.15053C1.76542 1.72553 1.57375 2.3922 1.57375 3.1022C1.57338 3.74136 1.73078 4.37073 2.03198 4.93448C2.33319 5.49822 2.76888 5.9789 3.30042 6.33387C2.68398 6.31425 2.08114 6.14769 1.54208 5.84803V5.89803C1.54202 6.79448 1.85211 7.66335 2.41974 8.3572C2.98736 9.05105 3.77756 9.52714 4.65625 9.7047C4.0844 9.85946 3.48486 9.88226 2.90292 9.77137C3.15083 10.5427 3.63375 11.2172 4.28406 11.7005C4.93437 12.1837 5.71951 12.4515 6.52958 12.4664C5.15444 13.5459 3.45616 14.1314 1.70792 14.1289C1.39823 14.129 1.08881 14.1109 0.78125 14.0747C2.55581 15.2157 4.62153 15.8212 6.73125 15.8189C13.8729 15.8189 17.7771 9.90387 17.7771 4.77387C17.7771 4.6072 17.7729 4.43887 17.7654 4.2722C18.5248 3.72301 19.1803 3.04295 19.7013 2.26387L19.7029 2.26137Z" fill="#112211"/></svg>