<svg width="24" height="25" viewBox="0 0 24 25" fill="none" xmlns="http://www.w3.org/2000/svg">
<path d="M16 6.5V12.5C16 13.6 16.9 14.5 18 14.5H19V21.5C19 22.05 19.45 22.5 20 22.5C20.55 22.5 21 22.05 21 21.5V3.63C21 2.98 20.39 2.5 19.76 2.65C17.6 3.18 16 5.01 16 6.5ZM11 9.5H9V3.5C9 2.95 8.55 2.5 8 2.5C7.45 2.5 7 2.95 7 3.5V9.5H5V3.5C5 2.95 4.55 2.5 4 2.5C3.45 2.5 3 2.95 3 3.5V9.5C3 11.71 4.79 13.5 7 13.5V21.5C7 22.05 7.45 22.5 8 22.5C8.55 22.5 9 22.05 9 21.5V13.5C11.21 13.5 13 11.71 13 9.5V3.5C13 2.95 12.55 2.5 12 2.5C11.45 2.5 11 2.95 11 3.5V9.5Z" fill="#112211"/>
</svg>
