<svg width="20" height="14" viewBox="0 0 20 14" fill="none" xmlns="http://www.w3.org/2000/svg"><path d="M19.5829 2.56962C19.4696 2.16564 19.249 1.79991 18.9445 1.51128C18.6314 1.21379 18.2477 1.00098 17.8295 0.892951C16.2645 0.480451 9.99454 0.480451 9.99454 0.480451C7.38065 0.450711 4.7674 0.581513 2.16954 0.872117C1.75136 0.988128 1.36834 1.20569 1.05454 1.50545C0.746204 1.80212 0.522871 2.16795 0.406204 2.56878C0.125949 4.07857 -0.0102189 5.61157 -0.000462243 7.14712C-0.0104622 8.68128 0.125371 10.2138 0.406204 11.7255C0.520371 12.1246 0.742871 12.4888 1.05204 12.783C1.3612 13.0771 1.7462 13.2896 2.16954 13.4021C3.75537 13.8138 9.99454 13.8138 9.99454 13.8138C12.6118 13.8436 15.2283 13.7128 17.8295 13.4221C18.2477 13.3141 18.6314 13.1013 18.9445 12.8038C19.2489 12.5152 19.4693 12.1494 19.582 11.7455C19.8696 10.2362 20.0094 8.70261 19.9995 7.16628C20.0212 5.62345 19.8815 4.08259 19.5829 2.56878V2.56962ZM8.0012 10.0005V4.29462L13.2179 7.14795L8.0012 10.0005Z" fill="#112211"/></svg>