<svg width="24" height="24" viewBox="0 0 24 24" fill="none" xmlns="http://www.w3.org/2000/svg">
<path d="M21 2.25H3C2.17157 2.25 1.5 2.92157 1.5 3.75V4.5C1.5 5.32843 2.17157 6 3 6H21C21.8284 6 22.5 5.32843 22.5 4.5V3.75C22.5 2.92157 21.8284 2.25 21 2.25Z" fill="black"/>
<path d="M3.49031 7.50001C3.43761 7.49972 3.38544 7.51055 3.33721 7.53178C3.28898 7.55301 3.24576 7.58416 3.21038 7.62322C3.17499 7.66227 3.14824 7.70834 3.13186 7.75843C3.11548 7.80852 3.10984 7.8615 3.11531 7.91391L4.34859 19.7527C4.34833 19.7561 4.34833 19.7595 4.34859 19.763C4.41303 20.3105 4.67628 20.8154 5.08837 21.1817C5.50046 21.548 6.0327 21.7502 6.58406 21.75H17.4164C17.9676 21.75 18.4996 21.5477 18.9115 21.1814C19.3234 20.8151 19.5865 20.3104 19.6509 19.763V19.7531L20.8823 7.91391C20.8878 7.8615 20.8822 7.80852 20.8658 7.75843C20.8494 7.70834 20.8226 7.66227 20.7873 7.62322C20.7519 7.58416 20.7087 7.55301 20.6604 7.53178C20.6122 7.51055 20.56 7.49972 20.5073 7.50001H3.49031ZM15.1556 15.9698C15.2269 16.0391 15.2837 16.1219 15.3228 16.2133C15.3618 16.3048 15.3823 16.403 15.383 16.5024C15.3837 16.6019 15.3646 16.7004 15.3269 16.7924C15.2891 16.8844 15.2335 16.9679 15.1632 17.0382C15.0929 17.1085 15.0093 17.1641 14.9173 17.2018C14.8253 17.2395 14.7267 17.2585 14.6273 17.2577C14.5279 17.257 14.4296 17.2365 14.3382 17.1974C14.2468 17.1583 14.1641 17.1015 14.0948 17.0302L12.0005 14.9358L9.90562 17.0302C9.76432 17.1675 9.57467 17.2436 9.37766 17.2422C9.18065 17.2408 8.9921 17.162 8.85276 17.0227C8.71342 16.8834 8.63448 16.6949 8.633 16.4979C8.63151 16.3009 8.70761 16.1112 8.84484 15.9698L10.9397 13.875L8.84484 11.7802C8.70761 11.6388 8.63151 11.4491 8.633 11.2521C8.63448 11.0551 8.71342 10.8666 8.85276 10.7273C8.9921 10.588 9.18065 10.5092 9.37766 10.5078C9.57467 10.5064 9.76432 10.5826 9.90562 10.7198L12.0005 12.8142L14.0948 10.7198C14.2361 10.5826 14.4258 10.5064 14.6228 10.5078C14.8198 10.5092 15.0084 10.588 15.1477 10.7273C15.287 10.8666 15.366 11.0551 15.3675 11.2521C15.3689 11.4491 15.2928 11.6388 15.1556 11.7802L13.0608 13.875L15.1556 15.9698Z" fill="black"/>
</svg>
