<svg width="25" height="24" viewBox="0 0 25 24" fill="none" xmlns="http://www.w3.org/2000/svg">
<path d="M17.3103 6.06L4.55422 18.8475L3.78125 20.7187L5.6525 19.9458L18.44 7.18968L17.3103 6.06ZM19.8627 3.50812L19.31 4.06031L20.4397 5.19L20.9923 4.63734C21.1374 4.49222 21.2188 4.29546 21.2188 4.09031C21.2188 3.88516 21.1374 3.6884 20.9923 3.54328L20.9572 3.50812C20.8853 3.43625 20.8 3.37923 20.7061 3.34034C20.6122 3.30144 20.5116 3.28142 20.4099 3.28142C20.3083 3.28142 20.2076 3.30144 20.1137 3.34034C20.0198 3.37923 19.9345 3.43625 19.8627 3.50812Z" stroke="black" stroke-width="2.0625" stroke-linecap="round" stroke-linejoin="round"/>
</svg>
