<svg width="18" height="18" viewBox="0 0 18 18" fill="none" xmlns="http://www.w3.org/2000/svg"><path d="M14.5685 3.43155C13.8385 2.69438 12.9701 2.1087 12.0131 1.70816C11.0561 1.30762 10.0295 1.10011 8.99204 1.09756C7.95462 1.095 6.92692 1.29746 5.96798 1.69328C5.00904 2.0891 4.13776 2.6705 3.40419 3.40407C2.67062 4.13764 2.08923 5.00892 1.6934 5.96786C1.29758 6.9268 1.09513 7.9545 1.09768 8.99192C1.10023 10.0293 1.30774 11.056 1.70828 12.013C2.10882 12.97 2.6945 13.8384 3.43167 14.5683C4.16162 15.3055 5.03003 15.8912 5.98701 16.2917C6.94399 16.6923 7.97068 16.8998 9.0081 16.9023C10.0455 16.9049 11.0732 16.7024 12.0322 16.3066C12.9911 15.9108 13.8624 15.3294 14.5959 14.5958C15.3295 13.8623 15.9109 12.991 16.3067 12.032C16.7026 11.0731 16.905 10.0454 16.9025 9.00797C16.8999 7.97055 16.6924 6.94386 16.2919 5.98688C15.8913 5.0299 15.3056 4.16149 14.5685 3.43155V3.43155ZM6.75464 9.1469C6.7248 8.69035 6.83485 8.23556 7.07012 7.84316C7.30539 7.45076 7.65469 7.13942 8.07145 6.95063C8.48821 6.76185 8.95261 6.7046 9.40274 6.78653C9.85287 6.86845 10.2673 7.08566 10.5908 7.40917C10.9144 7.73269 11.1316 8.14715 11.2135 8.59727C11.2954 9.0474 11.2382 9.5118 11.0494 9.92856C10.8606 10.3453 10.5492 10.6946 10.1569 10.9299C9.76446 11.1652 9.30966 11.2752 8.85311 11.2454C8.30844 11.2093 7.79542 10.9766 7.40943 10.5906C7.02344 10.2046 6.79076 9.69157 6.75464 9.1469V9.1469ZM15.1921 6.80409L11.8041 7.0094C11.7809 7.01062 11.7578 7.00617 11.7367 6.99642C11.7157 6.98668 11.6973 6.97195 11.6832 6.9535C11.5007 6.71438 11.287 6.50073 11.0479 6.31823C11.0295 6.30413 11.0147 6.28575 11.005 6.26468C10.9953 6.24361 10.9908 6.22047 10.992 6.19729L11.1973 2.80928C11.1986 2.7872 11.205 2.76572 11.2161 2.7466C11.2273 2.72748 11.2427 2.71125 11.2613 2.69923C11.2799 2.6872 11.301 2.67973 11.323 2.67741C11.345 2.67509 11.3672 2.678 11.3879 2.68588C12.2823 3.0266 13.0946 3.5527 13.7712 4.22962C14.4479 4.90654 14.9737 5.71897 15.3141 6.61354C15.322 6.6342 15.3249 6.65643 15.3226 6.67843C15.3203 6.70042 15.3128 6.72156 15.3008 6.74013C15.2888 6.75869 15.2725 6.77416 15.2534 6.78527C15.2343 6.79638 15.2128 6.80283 15.1907 6.80409H15.1921ZM6.80421 2.80928L7.00952 6.19729C7.01074 6.22047 7.00629 6.24361 6.99655 6.26468C6.98681 6.28575 6.97207 6.30413 6.95362 6.31823C6.7145 6.50073 6.50085 6.71438 6.31835 6.9535C6.30426 6.97195 6.28588 6.98668 6.2648 6.99642C6.24373 7.00617 6.22059 7.01062 6.19741 7.0094L2.8094 6.80409C2.78732 6.80283 2.76585 6.79638 2.74672 6.78527C2.7276 6.77416 2.71137 6.75869 2.69935 6.74013C2.68733 6.72156 2.67985 6.70042 2.67753 6.67843C2.67521 6.65643 2.67812 6.6342 2.686 6.61354C3.02655 5.71883 3.55258 4.90632 4.22951 4.22939C4.90644 3.55245 5.71895 3.02643 6.61366 2.68588C6.63432 2.678 6.65656 2.67509 6.67855 2.67741C6.70055 2.67973 6.72168 2.6872 6.74025 2.69923C6.75881 2.71125 6.77428 2.72748 6.78539 2.7466C6.79651 2.76572 6.80295 2.7872 6.80421 2.80928V2.80928ZM2.8094 11.1958L6.19741 10.9905C6.22059 10.9893 6.24373 10.9937 6.2648 11.0035C6.28588 11.0132 6.30426 11.0279 6.31835 11.0464C6.50085 11.2855 6.7145 11.4992 6.95362 11.6817C6.97207 11.6958 6.98681 11.7141 6.99655 11.7352C7.00629 11.7563 7.01074 11.7794 7.00952 11.8026L6.80421 15.1906C6.80295 15.2127 6.79651 15.2342 6.78539 15.2533C6.77428 15.2724 6.75881 15.2886 6.74025 15.3007C6.72168 15.3127 6.70055 15.3202 6.67855 15.3225C6.65656 15.3248 6.63432 15.3219 6.61366 15.314C5.71895 14.9735 4.90644 14.4474 4.22951 13.7705C3.55258 13.0936 3.02655 12.2811 2.686 11.3864C2.67812 11.3657 2.67521 11.3435 2.67753 11.3215C2.67985 11.2995 2.68733 11.2783 2.69935 11.2598C2.71137 11.2412 2.7276 11.2257 2.74672 11.2146C2.76585 11.2035 2.78732 11.1971 2.8094 11.1958V11.1958ZM11.1959 15.1906L10.9906 11.8026C10.9894 11.7794 10.9938 11.7563 11.0036 11.7352C11.0133 11.7141 11.0281 11.6958 11.0465 11.6817C11.2856 11.4992 11.4993 11.2855 11.6818 11.0464C11.6959 11.0279 11.7143 11.0132 11.7353 11.0035C11.7564 10.9937 11.7795 10.9893 11.8027 10.9905L15.1907 11.1958C15.2128 11.1971 15.2343 11.2035 15.2534 11.2146C15.2725 11.2257 15.2888 11.2412 15.3008 11.2598C15.3128 11.2783 15.3203 11.2995 15.3226 11.3215C15.3249 11.3435 15.322 11.3657 15.3141 11.3864C14.9736 12.2811 14.4476 13.0936 13.7706 13.7705C13.0937 14.4474 12.2812 14.9735 11.3865 15.314C11.3658 15.3219 11.3436 15.3248 11.3216 15.3225C11.2996 15.3202 11.2784 15.3127 11.2599 15.3007C11.2413 15.2886 11.2259 15.2724 11.2147 15.2533C11.2036 15.2342 11.1972 15.2127 11.1959 15.1906V15.1906Z" fill="black"/></svg>
