<svg width="24" height="25" viewBox="0 0 24 25" fill="none" xmlns="http://www.w3.org/2000/svg">
<path d="M19.432 4.94937V4.25C19.432 4.05109 19.353 3.86032 19.2123 3.71967C19.0717 3.57902 18.8809 3.5 18.682 3.5H5.31699C5.11807 3.5 4.92731 3.57902 4.78666 3.71967C4.646 3.86032 4.56699 4.05109 4.56699 4.25V4.94937C4.49855 5.48234 4.11464 9.20281 6.29808 11.7317C7.46386 13.0817 9.12745 13.8341 11.2495 13.9752V20H7.49949C7.30057 20 7.10981 20.079 6.96916 20.2197C6.8285 20.3603 6.74949 20.5511 6.74949 20.75C6.74949 20.9489 6.8285 21.1397 6.96916 21.2803C7.10981 21.421 7.30057 21.5 7.49949 21.5H16.4995C16.6984 21.5 16.8892 21.421 17.0298 21.2803C17.1705 21.1397 17.2495 20.9489 17.2495 20.75C17.2495 20.5511 17.1705 20.3603 17.0298 20.2197C16.8892 20.079 16.6984 20 16.4995 20H12.7495V13.9752C14.8715 13.8345 16.5351 13.0817 17.7009 11.7317C19.8843 9.20281 19.4995 5.48234 19.432 4.94937ZM6.05855 5.10922C6.06417 5.07308 6.06699 5.03657 6.06699 5H17.932C17.932 5.03657 17.9348 5.07308 17.9404 5.10922C18.0214 5.82052 18.0214 6.5387 17.9404 7.25H6.06136C5.98041 6.53875 5.97947 5.82067 6.05855 5.10922Z" fill="#112211"/>
</svg>
