<svg width="16" height="16" viewBox="0 0 16 16" fill="none" xmlns="http://www.w3.org/2000/svg">
<path d="M14.8019 6.5625L14.7879 6.58133C15.566 7.15776 15.9766 7.9531 15.9766 8.88094C15.9766 9.83755 15.5955 10.6399 14.8747 11.2009C14.2377 11.6961 13.3503 11.97 12.375 11.97H8.52344V7.25719L9.63062 8.36377C9.67939 8.4125 9.7373 8.45112 9.80103 8.47741C9.86477 8.5037 9.93307 8.51714 10.002 8.51696C10.071 8.51678 10.1392 8.50298 10.2028 8.47635C10.2664 8.44972 10.3241 8.4108 10.3726 8.36181C10.5776 8.15482 10.565 7.81785 10.3603 7.61282L10.3603 7.6128L8.37001 5.62342L8.35344 5.64L8.37 5.62342C8.27185 5.52533 8.13876 5.47023 8 5.47023C7.86124 5.47023 7.72815 5.52533 7.63 5.62342L7.62999 5.62343L5.63968 7.61343C5.44114 7.81197 5.4221 8.13651 5.61236 8.34547C5.65998 8.39793 5.71776 8.44017 5.7822 8.46964C5.84664 8.49911 5.9164 8.51519 5.98725 8.5169C6.05809 8.51862 6.12855 8.50593 6.19434 8.4796C6.26013 8.45328 6.3199 8.41387 6.37001 8.36376L7.47656 7.25721V11.97H4.25C3.12162 11.97 2.07034 11.5982 1.29 10.9244C0.473229 10.2176 0.0234375 9.2403 0.0234375 8.16844C0.0234375 7.10795 0.441194 6.17968 1.23175 5.48102C1.80454 4.97625 2.55534 4.61945 3.38776 4.45141C3.4678 4.43525 3.54294 4.40059 3.60718 4.35021L14.8019 6.5625ZM14.8019 6.5625L14.7879 6.58133C14.3533 6.25908 13.8188 6.02222 13.2542 5.89442L14.8019 6.5625ZM3.75774 4.16129C4.06254 3.51959 4.50983 2.95595 5.06553 2.51335C5.88522 1.86151 6.90032 1.51688 8 1.51688C9.25092 1.51688 10.4308 1.9667 11.3229 2.78416L11.3229 2.78417C12.0904 3.48631 12.6128 4.41318 12.8556 5.49478L3.75774 4.16129ZM7.52344 14.0066V12.0169H8.47656V14.0066C8.47656 14.133 8.42635 14.2542 8.33698 14.3435C8.24761 14.4329 8.12639 14.4831 8 14.4831C7.87361 14.4831 7.75239 14.4329 7.66302 14.3435C7.57365 14.2542 7.52344 14.133 7.52344 14.0066Z" fill="black" stroke="#112211" stroke-width="0.046875"/>
</svg>
