<svg width="16" height="20" viewBox="0 0 16 20" fill="none" xmlns="http://www.w3.org/2000/svg">
<path d="M11.1866 12.915L11.2024 12.9239L11.215 12.9107C11.4455 12.6697 11.7225 12.4778 12.0292 12.3468C12.336 12.2158 12.6661 12.1483 12.9996 12.1484C13.5168 12.1484 14.0211 12.3103 14.4417 12.6114C14.8622 12.9126 15.1779 13.3378 15.3445 13.8275C15.511 14.3172 15.5201 14.8468 15.3704 15.3419C15.2206 15.837 14.9197 16.2728 14.5097 16.5881C14.0997 16.9034 13.6012 17.0825 13.0843 17.1001C12.5673 17.1178 12.0578 16.9731 11.6273 16.6865C11.1968 16.3998 10.8668 15.9855 10.6837 15.5018C10.5005 15.0181 10.4735 14.4891 10.6062 13.9892L10.6109 13.9717L10.5951 13.9628L4.81383 10.71L4.798 10.7011L4.78543 10.7142C4.44333 11.0709 4.00234 11.3171 3.51918 11.4211C3.03602 11.5251 2.5328 11.4822 2.07425 11.2978C1.6157 11.1135 1.22279 10.7961 0.946072 10.3866C0.669354 9.97714 0.521484 9.49422 0.521484 9C0.521484 8.50578 0.669354 8.02286 0.946072 7.61336C1.22279 7.20387 1.6157 6.88654 2.07425 6.70218C2.5328 6.51783 3.03602 6.47489 3.51918 6.57889C4.00234 6.68289 4.44333 6.92907 4.78543 7.28575L4.798 7.29887L4.81383 7.28996L10.5951 4.03722L10.6109 4.02832L10.6062 4.01076C10.4516 3.4303 10.5139 2.81338 10.7815 2.27558C11.0491 1.73777 11.5036 1.31598 12.0599 1.08922C12.6161 0.862465 13.236 0.846301 13.8033 1.04376C14.3706 1.24122 14.8465 1.63875 15.1418 2.16188C15.437 2.68501 15.5314 3.29784 15.4073 3.88557C15.2831 4.4733 14.9489 4.9956 14.4673 5.35462C13.9857 5.71364 13.3897 5.88475 12.791 5.83589C12.1923 5.78703 11.6319 5.52155 11.2149 5.0892L11.2023 5.07616L11.1866 5.08504L5.4053 8.33778L5.38947 8.34668L5.39415 8.36423C5.50508 8.78082 5.50508 9.21918 5.39415 9.63577L5.38947 9.65332L5.4053 9.66222L11.1866 12.915Z" fill="black" stroke="#112211" stroke-width="0.046875"/>
</svg>
