<svg width="24" height="25" viewBox="0 0 24 25" fill="none" xmlns="http://www.w3.org/2000/svg">
<path d="M12.9998 21.3501C13.0332 21.6668 12.9292 21.9378 12.6878 22.1631C12.4458 22.3878 12.1748 22.4751 11.8748 22.4251C8.97482 21.9918 6.67482 20.8708 4.97482 19.0621C3.27482 17.2541 2.30815 14.7918 2.07482 11.6751C2.04149 11.3418 2.13715 11.0624 2.36182 10.8371C2.58715 10.6124 2.86649 10.5251 3.19982 10.5751C6.24982 10.9918 8.59982 12.1668 10.2498 14.1001C11.8998 16.0334 12.8165 18.4501 12.9998 21.3501ZM11.2248 3.4751C11.4248 3.19176 11.6872 3.0541 12.0118 3.0621C12.3372 3.07076 12.5998 3.21676 12.7998 3.5001C13.5498 4.5501 14.2042 5.7001 14.7628 6.9501C15.3208 8.2001 15.6582 9.2501 15.7748 10.1001C15.1248 10.4001 14.3998 10.8874 13.5998 11.5621C12.7998 12.2374 12.2748 12.7584 12.0248 13.1251C11.7915 12.7584 11.2542 12.2208 10.4128 11.5121C9.57082 10.8041 8.85815 10.3334 8.27482 10.1001C8.40815 9.26676 8.74582 8.21243 9.28782 6.9371C9.82915 5.66243 10.4748 4.50843 11.2248 3.4751ZM20.8748 10.5751C21.1915 10.5418 21.4582 10.6291 21.6748 10.8371C21.8915 11.0458 21.9915 11.3168 21.9748 11.6501C21.8415 14.3334 21.1125 16.5128 19.7878 18.1881C18.4625 19.8628 16.8582 21.0334 14.9748 21.7001C14.9415 20.6834 14.7875 19.5294 14.5128 18.2381C14.2375 16.9461 13.8082 15.8334 13.2248 14.9001C13.9415 13.8001 15.0042 12.8501 16.4128 12.0501C17.8208 11.2501 19.3082 10.7584 20.8748 10.5751Z" fill="#112211"/>
</svg>
