<svg width="18" height="19" viewBox="0 0 18 19" fill="none" xmlns="http://www.w3.org/2000/svg"><path d="M11.6946 2.77039C11.0104 2.03176 10.0549 1.625 9.0002 1.625C7.93989 1.625 6.98118 2.0293 6.3002 2.76336C5.61184 3.50551 5.27645 4.51414 5.3552 5.60328C5.5113 7.75203 7.14641 9.5 9.0002 9.5C10.854 9.5 12.4863 7.75238 12.6448 5.60398C12.7247 4.52469 12.3872 3.51816 11.6946 2.77039V2.77039ZM15.1877 17.375H2.8127C2.65072 17.3771 2.49031 17.3431 2.34314 17.2754C2.19597 17.2077 2.06574 17.1081 1.96192 16.9837C1.7334 16.7105 1.64129 16.3375 1.7095 15.9603C2.00622 14.3143 2.93223 12.9316 4.3877 11.9609C5.68075 11.0993 7.31868 10.625 9.0002 10.625C10.6817 10.625 12.3197 11.0996 13.6127 11.9609C15.0682 12.9313 15.9942 14.3139 16.2909 15.96C16.3591 16.3372 16.267 16.7102 16.0385 16.9834C15.9347 17.1078 15.8045 17.2075 15.6573 17.2752C15.5101 17.343 15.3497 17.3771 15.1877 17.375V17.375Z" fill="black"/></svg>