<svg width="24" height="24" viewBox="0 0 24 24" fill="none" xmlns="http://www.w3.org/2000/svg">
<path d="M21 6.85715C21 6.17516 20.7291 5.52111 20.2468 5.03887C19.7646 4.55663 19.1106 4.28572 18.4286 4.28572H17.7857V3.66094C17.7857 3.315 17.5197 3.01808 17.1738 3.00081C17.0869 2.99662 17 3.01012 16.9185 3.0405C16.8369 3.07087 16.7624 3.11749 16.6994 3.17752C16.6364 3.23755 16.5862 3.30975 16.552 3.38974C16.5177 3.46972 16.5 3.55584 16.5 3.64286V4.28572H7.5V3.66094C7.5 3.315 7.23402 3.01808 6.88808 3.00081C6.80116 2.99662 6.71429 3.01012 6.63275 3.0405C6.5512 3.07087 6.47667 3.11749 6.41367 3.17752C6.35067 3.23755 6.30051 3.30975 6.26624 3.38974C6.23197 3.46972 6.21429 3.55584 6.21429 3.64286V4.28572H5.57143C4.88944 4.28572 4.23539 4.55663 3.75315 5.03887C3.27092 5.52111 3 6.17516 3 6.85715V7.33929C3 7.38191 3.01693 7.42279 3.04707 7.45293C3.07721 7.48307 3.11809 7.5 3.16071 7.5H20.8393C20.8819 7.5 20.9228 7.48307 20.9529 7.45293C20.9831 7.42279 21 7.38191 21 7.33929V6.85715ZM3 18.4286C3 19.1106 3.27092 19.7646 3.75315 20.2468C4.23539 20.7291 4.88944 21 5.57143 21H18.4286C19.1106 21 19.7646 20.7291 20.2468 20.2468C20.7291 19.7646 21 19.1106 21 18.4286V8.90625C21 8.87428 20.9873 8.84363 20.9647 8.82102C20.9421 8.79842 20.9114 8.78572 20.8795 8.78572H3.12054C3.08857 8.78572 3.05791 8.79842 3.0353 8.82102C3.0127 8.84363 3 8.87428 3 8.90625V18.4286ZM16.8214 10.0714C17.0121 10.0714 17.1986 10.128 17.3572 10.2339C17.5157 10.3399 17.6393 10.4905 17.7123 10.6667C17.7853 10.8429 17.8044 11.0368 17.7672 11.2238C17.73 11.4109 17.6381 11.5827 17.5033 11.7176C17.3684 11.8524 17.1966 11.9443 17.0096 11.9815C16.8225 12.0187 16.6286 11.9996 16.4524 11.9266C16.2762 11.8536 16.1256 11.73 16.0197 11.5714C15.9137 11.4129 15.8571 11.2264 15.8571 11.0357C15.8571 10.78 15.9587 10.5347 16.1396 10.3539C16.3204 10.173 16.5657 10.0714 16.8214 10.0714ZM16.8214 13.2857C17.0121 13.2857 17.1986 13.3423 17.3572 13.4482C17.5157 13.5542 17.6393 13.7048 17.7123 13.881C17.7853 14.0572 17.8044 14.2511 17.7672 14.4381C17.73 14.6252 17.6381 14.797 17.5033 14.9319C17.3684 15.0667 17.1966 15.1586 17.0096 15.1958C16.8225 15.233 16.6286 15.2139 16.4524 15.1409C16.2762 15.0679 16.1256 14.9443 16.0197 14.7857C15.9137 14.6272 15.8571 14.4407 15.8571 14.25C15.8571 13.9943 15.9587 13.749 16.1396 13.5681C16.3204 13.3873 16.5657 13.2857 16.8214 13.2857ZM13.6071 10.0714C13.7979 10.0714 13.9843 10.128 14.1429 10.2339C14.3014 10.3399 14.425 10.4905 14.498 10.6667C14.571 10.8429 14.5901 11.0368 14.5529 11.2238C14.5157 11.4109 14.4239 11.5827 14.289 11.7176C14.1541 11.8524 13.9823 11.9443 13.7953 11.9815C13.6082 12.0187 13.4143 11.9996 13.2381 11.9266C13.0619 11.8536 12.9113 11.73 12.8054 11.5714C12.6994 11.4129 12.6429 11.2264 12.6429 11.0357C12.6429 10.78 12.7445 10.5347 12.9253 10.3539C13.1061 10.173 13.3514 10.0714 13.6071 10.0714ZM13.6071 13.2857C13.7979 13.2857 13.9843 13.3423 14.1429 13.4482C14.3014 13.5542 14.425 13.7048 14.498 13.881C14.571 14.0572 14.5901 14.2511 14.5529 14.4381C14.5157 14.6252 14.4239 14.797 14.289 14.9319C14.1541 15.0667 13.9823 15.1586 13.7953 15.1958C13.6082 15.233 13.4143 15.2139 13.2381 15.1409C13.0619 15.0679 12.9113 14.9443 12.8054 14.7857C12.6994 14.6272 12.6429 14.4407 12.6429 14.25C12.6429 13.9943 12.7445 13.749 12.9253 13.5681C13.1061 13.3873 13.3514 13.2857 13.6071 13.2857ZM13.6071 16.5C13.7979 16.5 13.9843 16.5566 14.1429 16.6625C14.3014 16.7685 14.425 16.9191 14.498 17.0953C14.571 17.2715 14.5901 17.4654 14.5529 17.6524C14.5157 17.8395 14.4239 18.0113 14.289 18.1461C14.1541 18.281 13.9823 18.3728 13.7953 18.41C13.6082 18.4473 13.4143 18.4282 13.2381 18.3552C13.0619 18.2822 12.9113 18.1586 12.8054 18C12.6994 17.8414 12.6429 17.655 12.6429 17.4643C12.6429 17.2085 12.7445 16.9633 12.9253 16.7824C13.1061 16.6016 13.3514 16.5 13.6071 16.5ZM10.3929 13.2857C10.5836 13.2857 10.77 13.3423 10.9286 13.4482C11.0872 13.5542 11.2108 13.7048 11.2837 13.881C11.3567 14.0572 11.3758 14.2511 11.3386 14.4381C11.3014 14.6252 11.2096 14.797 11.0747 14.9319C10.9399 15.0667 10.768 15.1586 10.581 15.1958C10.3939 15.233 10.2 15.2139 10.0238 15.1409C9.84764 15.0679 9.69704 14.9443 9.59108 14.7857C9.48513 14.6272 9.42857 14.4407 9.42857 14.25C9.42857 13.9943 9.53017 13.749 9.711 13.5681C9.89184 13.3873 10.1371 13.2857 10.3929 13.2857ZM10.3929 16.5C10.5836 16.5 10.77 16.5566 10.9286 16.6625C11.0872 16.7685 11.2108 16.9191 11.2837 17.0953C11.3567 17.2715 11.3758 17.4654 11.3386 17.6524C11.3014 17.8395 11.2096 18.0113 11.0747 18.1461C10.9399 18.281 10.768 18.3728 10.581 18.41C10.3939 18.4473 10.2 18.4282 10.0238 18.3552C9.84764 18.2822 9.69704 18.1586 9.59108 18C9.48513 17.8414 9.42857 17.655 9.42857 17.4643C9.42857 17.2085 9.53017 16.9633 9.711 16.7824C9.89184 16.6016 10.1371 16.5 10.3929 16.5ZM7.17857 13.2857C7.36929 13.2857 7.55572 13.3423 7.7143 13.4482C7.87288 13.5542 7.99647 13.7048 8.06946 13.881C8.14244 14.0572 8.16154 14.2511 8.12433 14.4381C8.08712 14.6252 7.99528 14.797 7.86042 14.9319C7.72557 15.0667 7.55375 15.1586 7.36669 15.1958C7.17964 15.233 6.98576 15.2139 6.80956 15.1409C6.63336 15.0679 6.48275 14.9443 6.3768 14.7857C6.27084 14.6272 6.21429 14.4407 6.21429 14.25C6.21429 13.9943 6.31588 13.749 6.49672 13.5681C6.67756 13.3873 6.92283 13.2857 7.17857 13.2857ZM7.17857 16.5C7.36929 16.5 7.55572 16.5566 7.7143 16.6625C7.87288 16.7685 7.99647 16.9191 8.06946 17.0953C8.14244 17.2715 8.16154 17.4654 8.12433 17.6524C8.08712 17.8395 7.99528 18.0113 7.86042 18.1461C7.72557 18.281 7.55375 18.3728 7.36669 18.41C7.17964 18.4473 6.98576 18.4282 6.80956 18.3552C6.63336 18.2822 6.48275 18.1586 6.3768 18C6.27084 17.8414 6.21429 17.655 6.21429 17.4643C6.21429 17.2085 6.31588 16.9633 6.49672 16.7824C6.67756 16.6016 6.92283 16.5 7.17857 16.5Z" fill="#112211"/>
</svg>
