<svg width="24" height="25" viewBox="0 0 24 25" fill="none" xmlns="http://www.w3.org/2000/svg">
<path d="M3 19.5C2.71667 19.5 2.47933 19.404 2.288 19.212C2.096 19.0207 2 18.7833 2 18.5C2 18.2167 2.096 17.9793 2.288 17.788C2.47933 17.596 2.71667 17.5 3 17.5H21C21.2833 17.5 21.5207 17.596 21.712 17.788C21.904 17.9793 22 18.2167 22 18.5C22 18.7833 21.904 19.0207 21.712 19.212C21.5207 19.404 21.2833 19.5 21 19.5H3ZM3 16.5V15.5C3 13.3667 3.65433 11.4833 4.963 9.85C6.271 8.21667 7.95 7.18333 10 6.75V6.5C10 5.95 10.196 5.47933 10.588 5.088C10.9793 4.696 11.45 4.5 12 4.5C12.55 4.5 13.021 4.696 13.413 5.088C13.8043 5.47933 14 5.95 14 6.5V6.75C16.0667 7.18333 17.75 8.21667 19.05 9.85C20.35 11.4833 21 13.3667 21 15.5V16.5H3Z" fill="#112211"/>
</svg>
