<svg width="24" height="25" viewBox="0 0 24 25" fill="none" xmlns="http://www.w3.org/2000/svg">
<path d="M2 15.5C3.67 14.75 5.33 14 7 13.67V5.5C7 4.70435 7.31607 3.94129 7.87868 3.37868C8.44129 2.81607 9.20435 2.5 10 2.5C11.31 2.5 12.42 3.33 12.83 4.5H10C9.73478 4.5 9.48043 4.60536 9.29289 4.79289C9.10536 4.98043 9 5.23478 9 5.5V6.5H14V5.5C14 4.70435 14.3161 3.94129 14.8787 3.37868C15.4413 2.81607 16.2044 2.5 17 2.5C18.31 2.5 19.42 3.33 19.83 4.5H17C16.7348 4.5 16.4804 4.60536 16.2929 4.79289C16.1054 4.98043 16 5.23478 16 5.5V15.44C18 15.12 20 13.5 22 13.5V15.5C19.78 15.5 17.56 17.5 15.33 17.5C13.11 17.5 10.89 15.5 8.67 15.5C6.44 15.5 4.22 16.5 2 17.5V15.5ZM14 8.5H9V10.5H14V8.5ZM14 12.5H9V13.5C10.67 13.66 12.33 14.81 14 15.29V12.5ZM2 19.5C4.22 18.5 6.44 17.5 8.67 17.5C10.89 17.5 13.11 19.5 15.33 19.5C17.56 19.5 19.78 17.5 22 17.5V19.5C19.78 19.5 17.56 21.5 15.33 21.5C13.11 21.5 10.89 19.5 8.67 19.5C6.44 19.5 4.22 20.5 2 21.5V19.5Z" fill="#112211"/>
</svg>
