<svg width="18" height="18" viewBox="0 0 18 18" fill="none" xmlns="http://www.w3.org/2000/svg"><path d="M5.625 9C5.625 8.85082 5.68426 8.70774 5.78975 8.60225C5.89524 8.49676 6.03832 8.4375 6.1875 8.4375H11.25V4.78125C11.25 3.65625 10.0621 2.8125 9 2.8125H3.65625C3.13428 2.81306 2.63384 3.02066 2.26475 3.38975C1.89566 3.75884 1.68806 4.25928 1.6875 4.78125V13.2188C1.68806 13.7407 1.89566 14.2412 2.26475 14.6102C2.63384 14.9793 3.13428 15.1869 3.65625 15.1875H9.28125C9.80322 15.1869 10.3037 14.9793 10.6728 14.6102C11.0418 14.2412 11.2494 13.7407 11.25 13.2188V9.5625H6.1875C6.03832 9.5625 5.89524 9.50324 5.78975 9.39775C5.68426 9.29226 5.625 9.14918 5.625 9ZM16.1476 8.60238L13.3351 5.78988C13.2288 5.68885 13.0872 5.63335 12.9405 5.63523C12.7938 5.63711 12.6537 5.69621 12.5499 5.79994C12.4462 5.90366 12.3871 6.0438 12.3852 6.19048C12.3834 6.33716 12.4388 6.47877 12.5399 6.58512L14.3919 8.4375H11.25V9.5625H14.3919L12.5399 11.4149C12.4855 11.4666 12.4419 11.5287 12.4119 11.5975C12.3818 11.6663 12.3658 11.7404 12.3649 11.8155C12.3639 11.8906 12.378 11.9651 12.4063 12.0346C12.4346 12.1042 12.4765 12.1673 12.5296 12.2204C12.5827 12.2735 12.6458 12.3154 12.7154 12.3437C12.7849 12.372 12.8594 12.3861 12.9345 12.3851C13.0096 12.3842 13.0837 12.3682 13.1525 12.3381C13.2213 12.3081 13.2834 12.2645 13.3351 12.2101L16.1476 9.39762C16.253 9.29214 16.3122 9.14912 16.3122 9C16.3122 8.85088 16.253 8.70786 16.1476 8.60238V8.60238Z" fill="black"/></svg>
