<svg width="14" height="12" viewBox="0 0 14 12" fill="none" xmlns="http://www.w3.org/2000/svg">
<path d="M12.5 0H2C1.86739 0 1.74021 0.0526785 1.64645 0.146447C1.55268 0.240215 1.5 0.367392 1.5 0.5V6.5C1.50091 7.29537 1.81727 8.0579 2.37968 8.62032C2.9421 9.18273 3.70463 9.49909 4.5 9.5H8C8.79537 9.49909 9.5579 9.18273 10.1203 8.62032C10.6827 8.0579 10.9991 7.29537 11 6.5V4H11.5625C12.0762 3.99942 12.5687 3.79511 12.9319 3.43188C13.2951 3.06865 13.4994 2.57618 13.5 2.0625V1C13.5 0.734784 13.3946 0.48043 13.2071 0.292893C13.0196 0.105357 12.7652 0 12.5 0V0ZM12.5 2.0625C12.5 2.31114 12.4012 2.5496 12.2254 2.72541C12.0496 2.90123 11.8111 3 11.5625 3H11V1H12.5V2.0625ZM11.5 10.5H1C0.867392 10.5 0.740215 10.5527 0.646447 10.6464C0.552678 10.7402 0.5 10.8674 0.5 11C0.5 11.1326 0.552678 11.2598 0.646447 11.3536C0.740215 11.4473 0.867392 11.5 1 11.5H11.5C11.6326 11.5 11.7598 11.4473 11.8536 11.3536C11.9473 11.2598 12 11.1326 12 11C12 10.8674 11.9473 10.7402 11.8536 10.6464C11.7598 10.5527 11.6326 10.5 11.5 10.5Z" fill="#112211"/>
</svg>
