<svg width="18" height="19" viewBox="0 0 18 19" fill="none" xmlns="http://www.w3.org/2000/svg"><path d="M1.125 13.7188C1.125 14.2409 1.33242 14.7417 1.70163 15.1109C2.07085 15.4801 2.57161 15.6875 3.09375 15.6875H14.9062C15.4284 15.6875 15.9292 15.4801 16.2984 15.1109C16.6676 14.7417 16.875 14.2409 16.875 13.7188V8.30469H1.125V13.7188ZM3.44531 11.0469C3.44531 10.7672 3.55643 10.4989 3.75422 10.3011C3.95202 10.1033 4.22028 9.99219 4.5 9.99219H6.1875C6.46722 9.99219 6.73548 10.1033 6.93328 10.3011C7.13107 10.4989 7.24219 10.7672 7.24219 11.0469V11.75C7.24219 12.0297 7.13107 12.298 6.93328 12.4958C6.73548 12.6936 6.46722 12.8047 6.1875 12.8047H4.5C4.22028 12.8047 3.95202 12.6936 3.75422 12.4958C3.55643 12.298 3.44531 12.0297 3.44531 11.75V11.0469ZM14.9062 3.3125H3.09375C2.57161 3.3125 2.07085 3.51992 1.70163 3.88913C1.33242 4.25835 1.125 4.75911 1.125 5.28125V6.19531H16.875V5.28125C16.875 4.75911 16.6676 4.25835 16.2984 3.88913C15.9292 3.51992 15.4284 3.3125 14.9062 3.3125V3.3125Z" fill="black"/></svg>
