<svg width="10" height="14" viewBox="0 0 10 14" fill="none" xmlns="http://www.w3.org/2000/svg">
<path d="M5 0C2.24312 0 0 2.14531 0 4.78125C0 6.03656 0.572187 7.70594 1.70062 9.74312C2.60687 11.3787 3.65531 12.8578 4.20062 13.5938C4.29277 13.7195 4.41325 13.8218 4.5523 13.8923C4.69134 13.9627 4.84504 13.9995 5.00094 13.9995C5.15683 13.9995 5.31053 13.9627 5.44958 13.8923C5.58862 13.8218 5.7091 13.7195 5.80125 13.5938C6.34563 12.8578 7.395 11.3787 8.30125 9.74312C9.42781 7.70656 10 6.03719 10 4.78125C10 2.14531 7.75688 0 5 0ZM5 7C4.60444 7 4.21776 6.8827 3.88886 6.66294C3.55996 6.44318 3.30362 6.13082 3.15224 5.76537C3.00087 5.39991 2.96126 4.99778 3.03843 4.60982C3.1156 4.22186 3.30608 3.86549 3.58579 3.58579C3.86549 3.30608 4.22186 3.1156 4.60982 3.03843C4.99778 2.96126 5.39991 3.00087 5.76537 3.15224C6.13082 3.30362 6.44318 3.55996 6.66294 3.88886C6.8827 4.21776 7 4.60444 7 5C6.99942 5.53026 6.78852 6.03863 6.41357 6.41357C6.03863 6.78852 5.53026 6.99942 5 7Z" fill="#112211"/>
</svg>
