<svg width="24" height="22" viewBox="0 0 24 22" fill="none" xmlns="http://www.w3.org/2000/svg">
<path d="M18.4687 21.5C18.3109 21.5006 18.1568 21.4514 18.0286 21.3594L12 16.9887L5.97139 21.3594C5.84259 21.4528 5.68742 21.5028 5.52832 21.5022C5.36921 21.5017 5.21441 21.4505 5.08629 21.3561C4.95818 21.2618 4.86339 21.1291 4.81563 20.9774C4.76787 20.8256 4.76961 20.6626 4.82061 20.5119L7.17186 13.5476L1.07811 9.36873C0.946113 9.27832 0.846491 9.14806 0.793797 8.99699C0.741103 8.84593 0.7381 8.68197 0.785225 8.52907C0.83235 8.37618 0.927135 8.24236 1.05573 8.14717C1.18432 8.05198 1.33999 8.0004 1.49998 7.99998H9.0178L11.2865 1.01795C11.3354 0.867212 11.4308 0.735827 11.559 0.642643C11.6871 0.54946 11.8415 0.499268 12 0.499268C12.1584 0.499268 12.3128 0.54946 12.441 0.642643C12.5692 0.735827 12.6645 0.867212 12.7134 1.01795L14.9822 8.00233H22.5C22.6602 8.00225 22.8162 8.05346 22.9452 8.14847C23.0741 8.24348 23.1693 8.37729 23.2167 8.5303C23.2642 8.68331 23.2613 8.84749 23.2087 8.99878C23.1561 9.15008 23.0564 9.28055 22.9242 9.37108L16.8281 13.5476L19.178 20.51C19.216 20.6227 19.2267 20.7429 19.2092 20.8605C19.1917 20.9782 19.1464 21.09 19.0771 21.1868C19.0078 21.2835 18.9165 21.3623 18.8107 21.4168C18.7049 21.4713 18.5877 21.4998 18.4687 21.5Z" fill="#FFC107"/>
</svg>
