<svg width="174" height="49" viewBox="0 0 174 49" fill="none" xmlns="http://www.w3.org/2000/svg">
<path d="M5.66667 24.5C5.66667 23.0272 4.47276 21.8333 3 21.8333C1.52724 21.8333 0.333336 23.0272 0.333336 24.5C0.333336 25.9728 1.52724 27.1667 3 27.1667C4.47276 27.1667 5.66667 25.9728 5.66667 24.5ZM39 24L3 24L3 25L39 25L39 24Z" fill="black"/>
<path d="M103.5 17L93 17V6.5C93 5.30653 92.5259 4.16193 91.682 3.31802C90.8381 2.47411 89.6935 2 88.5 2L70.5 2C69.3065 2 68.1619 2.47411 67.318 3.31802C66.4741 4.16193 66 5.30653 66 6.5L66 45.5C66 45.8978 66.158 46.2794 66.4393 46.5607C66.7206 46.842 67.1022 47 67.5 47H77.25C77.4489 47 77.6397 46.921 77.7803 46.7803C77.921 46.6397 78 46.4489 78 46.25V39.5422C78 38.735 78.6206 38.0422 79.4278 38.0019C79.6306 37.9921 79.8333 38.0236 80.0236 38.0945C80.2139 38.1654 80.3878 38.2741 80.5348 38.4142C80.6818 38.5543 80.7988 38.7227 80.8788 38.9094C80.9587 39.096 81 39.297 81 39.5V46.25C81 46.4489 81.079 46.6397 81.2197 46.7803C81.3603 46.921 81.5511 47 81.75 47L106.5 47C106.898 47 107.279 46.842 107.561 46.5607C107.842 46.2794 108 45.8978 108 45.5L108 21.5C108 20.3065 107.526 19.1619 106.682 18.318C105.838 17.4741 104.693 17 103.5 17V17ZM72.195 40.9878C71.8843 41.0284 71.5688 40.9708 71.2925 40.8229C71.0163 40.675 70.7933 40.4444 70.6549 40.1633C70.5164 39.8823 70.4695 39.5649 70.5206 39.2558C70.5717 38.9467 70.7183 38.6614 70.9398 38.4398C71.1614 38.2183 71.4467 38.0717 71.7558 38.0206C72.0649 37.9695 72.3823 38.0164 72.6633 38.1549C72.9444 38.2933 73.175 38.5163 73.3229 38.7925C73.4708 39.0688 73.5284 39.3843 73.4878 39.695C73.4449 40.0228 73.2949 40.3273 73.0611 40.5611C72.8273 40.7949 72.5228 40.9449 72.195 40.9878V40.9878ZM72.195 33.4878C71.8843 33.5284 71.5688 33.4708 71.2925 33.3229C71.0163 33.175 70.7933 32.9444 70.6549 32.6633C70.5164 32.3823 70.4695 32.0649 70.5206 31.7558C70.5717 31.4467 70.7183 31.1614 70.9398 30.9398C71.1614 30.7183 71.4467 30.5717 71.7558 30.5206C72.0649 30.4695 72.3823 30.5164 72.6633 30.6549C72.9444 30.7933 73.175 31.0163 73.3229 31.2925C73.4708 31.5688 73.5284 31.8843 73.4878 32.195C73.4449 32.5228 73.2949 32.8273 73.0611 33.0611C72.8273 33.2949 72.5228 33.4449 72.195 33.4878V33.4878ZM72.195 25.9878C71.8843 26.0284 71.5688 25.9708 71.2925 25.8229C71.0163 25.675 70.7933 25.4444 70.6549 25.1633C70.5164 24.8823 70.4695 24.5649 70.5206 24.2558C70.5717 23.9467 70.7183 23.6614 70.9398 23.4398C71.1614 23.2183 71.4467 23.0717 71.7558 23.0206C72.0649 22.9695 72.3823 23.0164 72.6633 23.1549C72.9444 23.2933 73.175 23.5163 73.3229 23.7925C73.4708 24.0688 73.5284 24.3843 73.4878 24.695C73.4449 25.0228 73.2949 25.3273 73.0611 25.5611C72.8273 25.7949 72.5228 25.9449 72.195 25.9878V25.9878ZM72.195 18.4878C71.8843 18.5284 71.5688 18.4708 71.2925 18.3229C71.0163 18.175 70.7933 17.9444 70.6549 17.6633C70.5164 17.3823 70.4695 17.0649 70.5206 16.7558C70.5717 16.4467 70.7183 16.1614 70.9398 15.9398C71.1614 15.7183 71.4467 15.5717 71.7558 15.5206C72.0649 15.4695 72.3823 15.5164 72.6633 15.6549C72.9444 15.7933 73.175 16.0163 73.3229 16.2925C73.4708 16.5688 73.5284 16.8843 73.4878 17.195C73.4449 17.5228 73.2949 17.8273 73.0611 18.0611C72.8273 18.2949 72.5228 18.4449 72.195 18.4878V18.4878ZM72.195 10.9878C71.8843 11.0284 71.5688 10.9708 71.2925 10.8229C71.0163 10.675 70.7933 10.4444 70.6549 10.1633C70.5164 9.88228 70.4695 9.56493 70.5206 9.25582C70.5717 8.94671 70.7183 8.66136 70.9398 8.43982C71.1614 8.21828 71.4467 8.07167 71.7558 8.02057C72.0649 7.96946 72.3823 8.01644 72.6633 8.15489C72.9444 8.29334 73.175 8.51632 73.3229 8.79254C73.4708 9.06875 73.5284 9.38434 73.4878 9.695C73.4449 10.0228 73.2949 10.3273 73.0611 10.5611C72.8273 10.7949 72.5228 10.9449 72.195 10.9878V10.9878ZM79.695 33.4878C79.3843 33.5284 79.0688 33.4708 78.7925 33.3229C78.5163 33.175 78.2933 32.9444 78.1549 32.6633C78.0164 32.3823 77.9695 32.0649 78.0206 31.7558C78.0717 31.4467 78.2183 31.1614 78.4398 30.9398C78.6614 30.7183 78.9467 30.5717 79.2558 30.5206C79.5649 30.4695 79.8823 30.5164 80.1633 30.6549C80.4444 30.7933 80.675 31.0163 80.8229 31.2925C80.9708 31.5688 81.0284 31.8843 80.9878 32.195C80.9449 32.5228 80.7949 32.8273 80.5611 33.0611C80.3273 33.2949 80.0228 33.4449 79.695 33.4878V33.4878ZM79.695 25.9878C79.3843 26.0284 79.0688 25.9708 78.7925 25.8229C78.5163 25.675 78.2933 25.4444 78.1549 25.1633C78.0164 24.8823 77.9695 24.5649 78.0206 24.2558C78.0717 23.9467 78.2183 23.6614 78.4398 23.4398C78.6614 23.2183 78.9467 23.0717 79.2558 23.0206C79.5649 22.9695 79.8823 23.0164 80.1633 23.1549C80.4444 23.2933 80.675 23.5163 80.8229 23.7925C80.9708 24.0688 81.0284 24.3843 80.9878 24.695C80.9449 25.0228 80.7949 25.3273 80.5611 25.5611C80.3273 25.7949 80.0228 25.9449 79.695 25.9878V25.9878ZM79.695 18.4878C79.3843 18.5284 79.0688 18.4708 78.7925 18.3229C78.5163 18.175 78.2933 17.9444 78.1549 17.6633C78.0164 17.3823 77.9695 17.0649 78.0206 16.7558C78.0717 16.4467 78.2183 16.1614 78.4398 15.9398C78.6614 15.7183 78.9467 15.5717 79.2558 15.5206C79.5649 15.4695 79.8823 15.5164 80.1633 15.6549C80.4444 15.7933 80.675 16.0163 80.8229 16.2925C80.9708 16.5688 81.0284 16.8843 80.9878 17.195C80.9449 17.5228 80.7949 17.8273 80.5611 18.0611C80.3273 18.2949 80.0228 18.4449 79.695 18.4878V18.4878ZM79.695 10.9878C79.3843 11.0284 79.0688 10.9708 78.7925 10.8229C78.5163 10.675 78.2933 10.4444 78.1549 10.1633C78.0164 9.88228 77.9695 9.56493 78.0206 9.25582C78.0717 8.94671 78.2183 8.66136 78.4398 8.43982C78.6614 8.21828 78.9467 8.07167 79.2558 8.02057C79.5649 7.96946 79.8823 8.01644 80.1633 8.15489C80.4444 8.29334 80.675 8.51632 80.8229 8.79254C80.9708 9.06875 81.0284 9.38434 80.9878 9.695C80.9449 10.0228 80.7949 10.3273 80.5611 10.5611C80.3273 10.7949 80.0228 10.9449 79.695 10.9878V10.9878ZM87.195 40.9878C86.8843 41.0284 86.5688 40.9708 86.2925 40.8229C86.0163 40.675 85.7933 40.4444 85.6549 40.1633C85.5164 39.8823 85.4695 39.5649 85.5206 39.2558C85.5717 38.9467 85.7183 38.6614 85.9398 38.4398C86.1614 38.2183 86.4467 38.0717 86.7558 38.0206C87.0649 37.9695 87.3823 38.0164 87.6633 38.1549C87.9444 38.2933 88.175 38.5163 88.3229 38.7925C88.4708 39.0688 88.5284 39.3843 88.4878 39.695C88.4449 40.0228 88.2949 40.3273 88.0611 40.5611C87.8273 40.7949 87.5228 40.9449 87.195 40.9878V40.9878ZM87.195 33.4878C86.8843 33.5284 86.5688 33.4708 86.2925 33.3229C86.0163 33.175 85.7933 32.9444 85.6549 32.6633C85.5164 32.3823 85.4695 32.0649 85.5206 31.7558C85.5717 31.4467 85.7183 31.1614 85.9398 30.9398C86.1614 30.7183 86.4467 30.5717 86.7558 30.5206C87.0649 30.4695 87.3823 30.5164 87.6633 30.6549C87.9444 30.7933 88.175 31.0163 88.3229 31.2925C88.4708 31.5688 88.5284 31.8843 88.4878 32.195C88.4449 32.5228 88.2949 32.8273 88.0611 33.0611C87.8273 33.2949 87.5228 33.4449 87.195 33.4878V33.4878ZM87.195 25.9878C86.8843 26.0284 86.5688 25.9708 86.2925 25.8229C86.0163 25.675 85.7933 25.4444 85.6549 25.1633C85.5164 24.8823 85.4695 24.5649 85.5206 24.2558C85.5717 23.9467 85.7183 23.6614 85.9398 23.4398C86.1614 23.2183 86.4467 23.0717 86.7558 23.0206C87.0649 22.9695 87.3823 23.0164 87.6633 23.1549C87.9444 23.2933 88.175 23.5163 88.3229 23.7925C88.4708 24.0688 88.5284 24.3843 88.4878 24.695C88.4449 25.0228 88.2949 25.3273 88.0611 25.5611C87.8273 25.7949 87.5228 25.9449 87.195 25.9878V25.9878ZM87.195 18.4878C86.8843 18.5284 86.5688 18.4708 86.2925 18.3229C86.0163 18.175 85.7933 17.9444 85.6549 17.6633C85.5164 17.3823 85.4695 17.0649 85.5206 16.7558C85.5717 16.4467 85.7183 16.1614 85.9398 15.9398C86.1614 15.7183 86.4467 15.5717 86.7558 15.5206C87.0649 15.4695 87.3823 15.5164 87.6633 15.6549C87.9444 15.7933 88.175 16.0163 88.3229 16.2925C88.4708 16.5688 88.5284 16.8843 88.4878 17.195C88.4449 17.5228 88.2949 17.8273 88.0611 18.0611C87.8273 18.2949 87.5228 18.4449 87.195 18.4878V18.4878ZM87.195 10.9878C86.8843 11.0284 86.5688 10.9708 86.2925 10.8229C86.0163 10.675 85.7933 10.4444 85.6549 10.1633C85.5164 9.88228 85.4695 9.56493 85.5206 9.25582C85.5717 8.94671 85.7183 8.66136 85.9398 8.43982C86.1614 8.21828 86.4467 8.07167 86.7558 8.02057C87.0649 7.96946 87.3823 8.01644 87.6633 8.15489C87.9444 8.29334 88.175 8.51632 88.3229 8.79254C88.4708 9.06875 88.5284 9.38434 88.4878 9.695C88.4449 10.0228 88.2949 10.3273 88.0611 10.5611C87.8273 10.7949 87.5228 10.9449 87.195 10.9878V10.9878ZM104.625 44L93 44L93 20L103.5 20C103.898 20 104.279 20.158 104.561 20.4393C104.842 20.7206 105 21.1022 105 21.5L105 43.625C105 43.7245 104.96 43.8198 104.89 43.8902C104.82 43.9605 104.724 44 104.625 44Z" fill="#112211"/>
<path d="M100.5 38C100.203 38 99.9133 38.088 99.6666 38.2528C99.42 38.4176 99.2277 38.6519 99.1142 38.926C99.0006 39.2001 98.9709 39.5017 99.0288 39.7926C99.0867 40.0836 99.2296 40.3509 99.4393 40.5607C99.6491 40.7704 99.9164 40.9133 100.207 40.9712C100.498 41.0291 100.8 40.9993 101.074 40.8858C101.348 40.7723 101.582 40.58 101.747 40.3334C101.912 40.0867 102 39.7967 102 39.5C102 39.1022 101.842 38.7206 101.561 38.4393C101.279 38.158 100.898 38 100.5 38ZM100.5 30.5C100.203 30.5 99.9133 30.588 99.6666 30.7528C99.42 30.9176 99.2277 31.1519 99.1142 31.426C99.0006 31.7001 98.9709 32.0017 99.0288 32.2926C99.0867 32.5836 99.2296 32.8509 99.4393 33.0607C99.6491 33.2704 99.9164 33.4133 100.207 33.4712C100.498 33.5291 100.8 33.4994 101.074 33.3858C101.348 33.2723 101.582 33.08 101.747 32.8334C101.912 32.5867 102 32.2967 102 32C102 31.6022 101.842 31.2206 101.561 30.9393C101.279 30.658 100.898 30.5 100.5 30.5ZM100.5 23C100.203 23 99.9133 23.088 99.6666 23.2528C99.42 23.4176 99.2277 23.6519 99.1142 23.926C99.0006 24.2001 98.9709 24.5017 99.0288 24.7926C99.0867 25.0836 99.2296 25.3509 99.4393 25.5607C99.6491 25.7704 99.9164 25.9133 100.207 25.9712C100.498 26.0291 100.8 25.9994 101.074 25.8858C101.348 25.7723 101.582 25.58 101.747 25.3334C101.912 25.0867 102 24.7967 102 24.5C102 24.1022 101.842 23.7206 101.561 23.4393C101.279 23.158 100.898 23 100.5 23ZM94.5 38C94.2033 38 93.9133 38.088 93.6666 38.2528C93.42 38.4176 93.2277 38.6519 93.1142 38.926C93.0006 39.2001 92.9709 39.5017 93.0288 39.7926C93.0867 40.0836 93.2296 40.3509 93.4393 40.5607C93.6491 40.7704 93.9164 40.9133 94.2074 40.9712C94.4983 41.0291 94.7999 40.9993 95.074 40.8858C95.3481 40.7723 95.5824 40.58 95.7472 40.3334C95.912 40.0867 96 39.7967 96 39.5C96 39.1022 95.842 38.7206 95.5607 38.4393C95.2794 38.158 94.8978 38 94.5 38ZM94.5 30.5C94.2033 30.5 93.9133 30.588 93.6666 30.7528C93.42 30.9176 93.2277 31.1519 93.1142 31.426C93.0006 31.7001 92.9709 32.0017 93.0288 32.2926C93.0867 32.5836 93.2296 32.8509 93.4393 33.0607C93.6491 33.2704 93.9164 33.4133 94.2074 33.4712C94.4983 33.5291 94.7999 33.4994 95.074 33.3858C95.3481 33.2723 95.5824 33.08 95.7472 32.8334C95.912 32.5867 96 32.2967 96 32C96 31.6022 95.842 31.2206 95.5607 30.9393C95.2794 30.658 94.8978 30.5 94.5 30.5ZM94.5 23C94.2033 23 93.9133 23.088 93.6666 23.2528C93.42 23.4176 93.2277 23.6519 93.1142 23.926C93.0006 24.2001 92.9709 24.5017 93.0288 24.7926C93.0867 25.0836 93.2296 25.3509 93.4393 25.5607C93.6491 25.7704 93.9164 25.9133 94.2074 25.9712C94.4983 26.0291 94.7999 25.9994 95.074 25.8858C95.3481 25.7723 95.5824 25.58 95.7472 25.3334C95.912 25.0867 96 24.7967 96 24.5C96 24.1022 95.842 23.7206 95.5607 23.4393C95.2794 23.158 94.8978 23 94.5 23Z" fill="black"/>
<path d="M173.667 24.5C173.667 23.0272 172.473 21.8333 171 21.8333C169.527 21.8333 168.333 23.0272 168.333 24.5C168.333 25.9728 169.527 27.1667 171 27.1667C172.473 27.1667 173.667 25.9728 173.667 24.5ZM171 24L135 24L135 25L171 25L171 24Z" fill="black"/>
</svg>
