<svg width="28" height="25" viewBox="27 4 10 26" fill="none" xmlns="http://www.w3.org/2000/svg">
<path fill-rule="evenodd" clip-rule="evenodd" d="M39.7626 11.9898C38.3489 9.04026 35.4017 7.00754 31.4702 7.00754C25.8555 7.00754 22.3535 11.1534 22.3535 16.1948C22.3535 19.4132 23.733 22.2436 26.2006 23.8843C26.3412 23.779 26.4258 23.7108 26.4258 23.7108C27.6566 22.9077 28.8573 22.0624 30.0258 21.1765C27.8244 20.5287 26.7127 18.4223 26.7127 16.1948C26.7127 13.5498 28.3601 10.975 31.5021 10.975C34.269 10.975 36.0793 13.2686 36.274 15.7501C37.4868 14.5464 38.6508 13.292 39.7626 11.9898ZM31.0601 25.3736C34.5418 22.9057 37.7611 20.0866 40.6652 16.9631C40.3328 21.6795 36.9335 25.382 31.5052 25.382C31.3553 25.382 31.2069 25.3791 31.0601 25.3736Z" fill="#8DD3BB"/>
<path d="M43.3179 4.53785C38.8631 2.89989 35.6607 6.42437 35.6607 6.42437L38.6974 8.18979C39.835 7.53652 40.3417 8.17067 40.4723 8.51802C40.5648 8.76339 40.4405 9.03108 40.3417 9.17766L39.6024 10.1114C35.6129 14.9233 30.9223 19.1042 25.6868 22.5203C25.6868 22.5203 24.1063 23.795 23.265 23.8141C22.5576 23.8301 22.2422 23.2341 22.838 22.3801L21.3722 19.0723C21.3722 19.0723 17.558 21.5707 18.2972 25.9619C18.6095 27.8166 20.3525 29.1359 22.2039 28.8013C23.1503 28.6324 24.3198 28.1703 25.7505 27.2239L28.3826 25.5031C33.6181 22.0806 38.3119 17.8869 42.2982 13.0686L43.2032 11.9756C44.567 10.4237 45.1789 9.1458 45.386 8.13562C45.7046 6.59007 44.7901 5.07959 43.3179 4.53785Z" fill="#8DD3BB"/>
</svg>
